<svg width="65" height="65" viewBox="0 0 65 65" fill="none" xmlns="http://www.w3.org/2000/svg">
<path d="M59.2871 0.126953H5.71289C2.5628 0.126953 0 2.68976 0 5.83984V51.543C0 54.6931 2.5628 57.2559 5.71289 57.2559H38.2129V62.9688C38.2129 64.0204 39.0655 64.873 40.1172 64.873C41.1689 64.873 42.0215 64.0204 42.0215 62.9688V43.9258H45.957V62.9688C45.957 64.0204 46.8096 64.873 47.8613 64.873C48.913 64.873 49.7656 64.0204 49.7656 62.9688V43.9258H53.4473V62.9688C53.4473 64.0204 54.2999 64.873 55.3516 64.873C56.4032 64.873 57.2559 64.0204 57.2559 62.9688V57.2559H59.2871C62.4372 57.2559 65 54.6931 65 51.543V5.83984C65 2.68976 62.4372 0.126953 59.2871 0.126953ZM5.71289 3.93555H59.2871C60.3371 3.93555 61.1914 4.78981 61.1914 5.83984V15.3613H3.80859V5.83984C3.80859 4.78981 4.66286 3.93555 5.71289 3.93555ZM43.6754 40.1172L47.7344 34.0288L51.7933 40.1172H43.6754ZM59.2871 53.4473H57.2559V42.0215C57.2559 41.6456 57.1446 41.278 56.9361 40.9652L49.3189 29.5395C48.5674 28.4122 46.9042 28.4079 46.1499 29.5395L38.5327 40.9652C38.3241 41.278 38.2129 41.6456 38.2129 42.0215V53.4473H5.71289C4.66286 53.4473 3.80859 52.593 3.80859 51.543V19.1699H61.1914V51.543C61.1914 52.593 60.3371 53.4473 59.2871 53.4473Z" fill="#9D9D9D"/>
</svg>
