<svg width="18" height="15" viewBox="0 0 18 15" fill="none" xmlns="http://www.w3.org/2000/svg">
<path fill-rule="evenodd" clip-rule="evenodd" d="M8.77907 4.63906L8.74003 3.99023C8.62296 2.30867 9.65042 0.772727 11.2762 0.176946C11.8745 -0.0349296 12.8889 -0.061414 13.5523 0.123977C13.8123 0.20343 14.3066 0.468196 14.6577 0.706555L15.295 1.14351L15.9973 0.91843C16.3876 0.799212 16.9078 0.600618 17.1419 0.468196C17.363 0.349055 17.5581 0.282805 17.5581 0.322571C17.5581 0.547649 17.0769 1.31562 16.6737 1.73929C16.1274 2.33515 16.2835 2.38812 17.389 1.99085C18.0524 1.76577 18.0653 1.76578 17.9353 2.01734C17.8572 2.14976 17.454 2.6132 17.0248 3.03687C16.2965 3.76515 16.2575 3.8446 16.2575 4.45367C16.2575 5.39375 15.8153 7.35335 15.3731 8.42585C14.5537 10.4384 12.7979 12.5172 11.0421 13.5632C8.57098 15.033 5.28041 15.4037 2.51017 14.543C1.58675 14.2517 0 13.5102 0 13.3779C0 13.3381 0.481193 13.2852 1.06651 13.2719C2.28905 13.2455 3.5116 12.9012 4.55208 12.2921L5.25446 11.8684L4.44803 11.5904C3.3035 11.1931 2.27604 10.2795 2.01596 9.4189C1.93786 9.14085 1.96389 9.12757 2.69223 9.12757L3.4466 9.11437L2.80929 8.80984C2.05493 8.42585 1.36564 7.77703 1.02746 7.115C0.78032 6.63835 0.468254 5.43343 0.559286 5.34078C0.58524 5.30109 0.858414 5.38046 1.17056 5.4864C2.06794 5.81742 2.18501 5.73796 1.66477 5.18187C0.689288 4.17562 0.39016 2.67937 0.858414 1.26265L1.07953 0.627101L1.93786 1.48773C3.69374 3.22226 5.76168 4.25507 8.12875 4.5596L8.77907 4.63906Z" fill="#9B9BCA"/>
</svg>
