<svg xmlns="http://www.w3.org/2000/svg">


    <defs>
        <symbol id="design" viewBox="0 0 512 512">
            <path d="m316 346c-5.519531 0-10 4.480469-10 10s4.480469 10 10 10 10-4.480469 10-10-4.480469-10-10-10zm0 0"/>
            <path
                d="m462 0h-412c-27.570312 0-50 22.429688-50 50v306c0 27.570312 22.429688 50 50 50h156v46h-10c-13.351562 0-25.902344 5.203125-35.351562 14.648438-9.445313 9.449218-14.648438 22-14.648438 35.351562 0 5.523438 4.476562 10 10 10h200c5.523438 0 10-4.476562 10-10 0-27.570312-22.429688-50-50-50h-10v-46h156c27.570312 0 50-22.429688 50-50v-306c0-27.570312-22.429688-50-50-50zm-412 20h412c16.542969 0 30 13.457031 30 30v256h-46v-230c0-5.523438-4.476562-10-10-10h-80c-5.523438 0-10 4.476562-10 10v230h-50.054688c-.105468-10.34375-.375-20.539062-.804687-30.429688-1.75-40.726562-5.738281-68.007812-7.8125-80.007812 20.632813-15.191406 26.265625-43.347656 13.652344-65.222656l-34.660157-60.03125c-1.789062-3.09375-5.089843-5-8.660156-5-3.574218 0-6.875 1.90625-8.660156 5l-34.675781 60.035156c-11.890625 20.625-7.675781 47.339844 11.003906 63.105469-2.164063 11.964843-6.53125 40.222656-8.429687 82.101562-.449219 9.996094-.734376 20.199219-.84375 30.449219h-50.054688v-150c0-1.585938-.375-3.03125-.988281-4.316406-.027344-.050782-.042969-.105469-.066407-.15625l-40-80c-1.695312-3.386719-5.15625-5.527344-8.945312-5.527344s-7.25 2.140625-8.945312 5.527344l-40 80c-.023438.050781-.039063.105468-.0625.15625-.625 1.296875-.992188 2.765625-.992188 4.316406v150h-46v-256c0-16.542969 13.457031-30 30-30zm316 286v-220h60v20h-10c-5.523438 0-10 4.476562-10 10s4.476562 10 10 10h10v30h-10c-5.523438 0-10 4.476562-10 10s4.476562 10 10 10h10v30h-10c-5.523438 0-10 4.476562-10 10s4.476562 10 10 10h10v40h-10c-5.523438 0-10 4.476562-10 10s4.476562 10 10 10h10v20zm-108.339844-100.691406c3.632813 0 7.25-.417969 10.789063-1.199219 1.855469 11.894531 4.582031 32.941406 6.195312 61.890625h-37.222656c1.691406-28.929688 4.546875-50.304688 6.519531-62.601562 4.429688 1.261718 9.042969 1.910156 13.71875 1.910156zm0-20c-22.855468 0-37.59375-24.875-26.011718-44.96875l26.011718-45.03125 25.996094 45.027344c11.539062 20.011718-2.996094 44.972656-25.996094 44.972656zm-21.15625 100.691406h39.019532c.210937 6.570312.355468 13.253906.425781 20h-39.894531c.074218-6.703125.226562-13.386719.449218-20zm-110.503906 20v-140h20v140zm-40 0v-140h20v140zm6.179688-160 23.820312-47.640625 23.820312 47.640625zm252.105468 346h-176.582031c1.46875-4.167969 3.867187-7.988281 7.085937-11.210938 5.671876-5.667968 13.203126-8.789062 21.210938-8.789062h120c13.039062 0 24.160156 8.359375 28.285156 20zm-58.285156-40h-60v-46h60zm176-66h-412c-16.542969 0-30-13.457031-30-30v-30h472v30c0 16.542969-13.457031 30-30 30zm0 0"/>
            <path
                d="m276 346h-60c-5.523438 0-10 4.476562-10 10s4.476562 10 10 10h60c5.523438 0 10-4.476562 10-10s-4.476562-10-10-10zm0 0"/>
        </symbol>
        <symbol id="health" viewBox="0 0 512 512">
            <g>
                <path d="M482.726,485.783l-22.65-132.603c-2.441-14.287-12.576-25.764-26.453-29.95l-61.092-18.433
			c-1.265-14.934-7.388-29.023-17.578-40.175c-8.151-8.92-18.403-15.415-29.704-18.999c1.934-2.146,3.727-4.285,5.372-6.377
			c14.528-18.477,22.306-38.833,24.286-52.724h4.713c12.258,0,22.231-9.972,22.231-22.231v-11.396
			c0-8.181-4.602-15.594-11.523-19.441V106.05c0-4.141-3.357-7.498-7.498-7.498s-7.497,3.356-7.497,7.498v30.764
			c-2.92,0.507-6.404,1.383-9.968,2.884c-0.365,0.133-0.72,0.287-1.056,0.472c-0.805,0.367-1.611,0.754-2.414,1.19V80.938
			c0-16.693-13.58-30.273-30.273-30.273h-20.695c-7.138,0-14.111,2.487-19.637,7.005l-2.031,1.66c-3.73,3.05-8.438,4.73-13.257,4.73
			c-4.819,0-9.528-1.68-13.258-4.73l-2.03-1.66c-5.526-4.517-12.499-7.005-19.637-7.005H200.38
			c-16.693,0-30.273,13.58-30.273,30.273v60.422c-0.803-0.436-1.609-0.823-2.414-1.19c-0.336-0.185-0.69-0.339-1.055-0.472
			c-3.564-1.501-7.049-2.377-9.968-2.884V59.025c0-24.278,19.752-44.03,44.03-44.03h110.601c24.279,0,44.03,19.752,44.03,44.03
			v11.786c0,4.141,3.357,7.498,7.497,7.498s7.498-3.356,7.498-7.498V59.025C370.326,26.479,343.847,0,311.301,0H200.7
			c-32.547,0-59.025,26.479-59.025,59.025v74.43c-6.921,3.847-11.523,11.259-11.523,19.441v11.396
			c0,12.259,9.973,22.231,22.231,22.231h4.713c1.979,13.891,9.758,34.247,24.286,52.724c1.643,2.09,3.435,4.227,5.367,6.371
			c-25.98,8.252-44.926,31.61-47.277,59.179L78.378,323.23c-13.877,4.186-24.013,15.663-26.453,29.95l-9.198,53.849
			c-0.697,4.082,2.047,7.955,6.128,8.652c4.08,0.699,7.955-2.046,8.653-6.128l9.198-53.849c1.476-8.644,7.608-15.586,16.003-18.118
			l56.505-17.049v14.831c-12.952,2.384-23.973,11.281-28.512,23.608c-1.205,3.272-1.954,6.698-2.226,10.182l-5.461,70.095
			c-0.412,5.28,1.415,10.538,5.01,14.423c3.595,3.886,8.694,6.116,13.989,6.116h9.348c4.141,0,7.498-3.356,7.498-7.498
			c0-4.142-3.357-7.497-7.498-7.497h-9.348c-1.129,0-2.215-0.474-2.982-1.304c-0.766-0.828-1.155-1.948-1.067-3.073l5.461-70.096
			c0.165-2.111,0.618-4.186,1.348-6.167c3.158-8.575,11.686-14.382,21.223-14.449l1.235-0.009c0.058-0.001,0.115-0.001,0.172-0.001
			c9.269,0,17.474,5.256,20.935,13.427c0.971,2.291,1.561,4.713,1.755,7.199l5.463,70.097c0.087,1.124-0.302,2.244-1.068,3.073
			c-0.766,0.828-1.853,1.303-2.982,1.303h-9.348c-4.141,0-7.498,3.356-7.498,7.497c0,4.141,3.357,7.498,7.498,7.498h9.348
			c5.295,0,10.395-2.229,13.989-6.116c3.596-3.887,5.423-9.144,5.011-14.422l-5.463-70.096c-0.32-4.102-1.295-8.101-2.898-11.884
			c-4.939-11.657-15.5-19.762-27.938-21.955v-19.306l25.774-7.777c2.345,4.939,6.992,15.612,16.197,38.619
			c9.277,23.214,20.808,52.969,31.867,81.895c0.079,0.243,0.17,0.48,0.272,0.712c7.38,19.311,14.539,38.225,20.662,54.541
			c1.098,2.926,3.895,4.864,7.02,4.864c3.125,0,5.922-1.938,7.02-4.864c6.122-16.316,13.281-35.23,20.662-54.541
			c0.103-0.232,0.193-0.47,0.272-0.712c11.051-28.909,22.576-58.645,31.849-81.852c9.217-23.037,13.868-33.719,16.214-38.662
			l25.774,7.777v44.285c-17.858,3.469-31.385,19.219-31.385,38.077c0,21.391,17.403,38.795,38.795,38.795
			c21.392,0,38.795-17.403,38.795-38.795c0-18.796-13.438-34.508-31.21-38.045v-39.792l56.506,17.049
			c8.395,2.532,14.526,9.474,16.003,18.118l22.65,132.603c0.376,2.199-0.209,4.349-1.648,6.054c-1.438,1.704-3.459,2.644-5.69,2.644
			H51.393c-2.231,0-4.251-0.939-5.69-2.644c-1.438-1.705-2.024-3.854-1.648-6.054l7.475-43.762c0.697-4.082-2.047-7.955-6.128-8.652
			c-4.08-0.7-7.955,2.047-8.653,6.128l-7.475,43.762c-1.115,6.532,0.696,13.183,4.968,18.248C38.516,509.096,44.767,512,51.393,512
			h409.214c6.626,0,12.878-2.904,17.151-7.969C482.03,498.966,483.841,492.315,482.726,485.783z M355.421,152.089
			c3.995-0.996,7.202-0.978,7.238-0.977c1.292,0.017,2.548-0.285,3.664-0.87c0.334,0.831,0.531,1.724,0.531,2.654v11.396
			c0,3.99-3.246,7.236-7.236,7.236h-4.197V152.089z M156.579,171.528L156.579,171.528h-4.197c-3.99,0-7.236-3.246-7.236-7.236
			v-11.396c0-0.93,0.198-1.823,0.531-2.653c1.115,0.585,2.371,0.887,3.664,0.869c0.057,0.01,3.255-0.008,7.238,0.981V171.528z
			 M171.574,179.935v-19.698c2.272,0.681,4.757,0.588,7.051-0.369c3.935-1.642,6.477-5.455,6.477-9.716V80.938
			c0-8.424,6.854-15.278,15.278-15.278h20.695c3.688,0,7.291,1.285,10.146,3.619l2.03,1.66c6.401,5.234,14.48,8.115,22.749,8.115
			c8.269,0,16.348-2.882,22.749-8.115l2.03-1.66c2.854-2.334,6.458-3.619,10.146-3.619h20.695c8.424,0,15.278,6.854,15.278,15.278
			v69.215c0,4.26,2.542,8.074,6.477,9.716c1.314,0.548,2.69,0.814,4.054,0.814c1.017,0,2.026-0.149,2.997-0.439v19.691
			c0,10.947-7.568,32.205-21.594,50.043c-4.646,5.909-10.618,12.257-17.971,17.805c-0.233,0.156-0.456,0.325-0.669,0.505
			c-11.391,8.422-26.038,14.874-44.192,14.874s-32.801-6.452-44.193-14.875c-0.213-0.179-0.435-0.348-0.667-0.503
			c-7.353-5.549-13.325-11.897-17.972-17.806C179.143,212.141,171.574,190.882,171.574,179.935z M305.12,301.07L256,337.784
			l-49.12-36.714c4.871-6.191,7.6-14.138,7.6-21.23v-12.086c11.551,6.212,25.334,10.404,41.52,10.404s29.97-4.192,41.52-10.404
			v12.086C297.52,286.932,300.249,294.879,305.12,301.07z M194.367,292.701c-4.004-1.525-8.443-1.775-12.642-0.636
			c-0.184,0.043-0.364,0.092-0.539,0.144l-25.903,7.816c4.381-21.542,21.873-38.688,44.202-42.009v21.824
			C199.485,284.544,197.385,289.407,194.367,292.701z M214.716,352.889c-0.014-0.035-0.028-0.07-0.041-0.104
			c-0.38-0.961-0.755-1.909-1.127-2.846c-0.067-0.17-0.134-0.339-0.201-0.507c-0.364-0.917-0.725-1.827-1.081-2.722
			c-0.025-0.063-0.05-0.125-0.075-0.189c-1.111-2.793-2.182-5.472-3.212-8.039c-0.075-0.186-0.15-0.375-0.225-0.56
			c-0.296-0.736-0.587-1.461-0.876-2.177c-0.106-0.263-0.211-0.523-0.316-0.783c-0.28-0.694-0.558-1.384-0.832-2.059
			c-0.082-0.202-0.162-0.398-0.243-0.599c-0.497-1.226-0.983-2.421-1.457-3.586c-0.128-0.315-0.259-0.636-0.386-0.947
			c-0.186-0.454-0.367-0.896-0.549-1.341c-0.196-0.48-0.392-0.956-0.584-1.424c-0.072-0.175-0.147-0.36-0.219-0.534
			c-0.058-0.14-0.111-0.269-0.168-0.408c-0.866-2.104-1.689-4.087-2.47-5.952c-0.006-0.015-0.013-0.03-0.019-0.045
			c-0.416-0.993-0.823-1.963-1.214-2.887c-0.203-0.479-0.403-0.95-0.599-1.412l42.245,31.574l-17.652,7.499
			c-0.031,0.013-0.063,0.026-0.094,0.04l-7.37,3.131C215.533,354.955,215.124,353.919,214.716,352.889z M232.606,398.797
			c-1.481-3.843-2.973-7.708-4.468-11.569c-2.338-6.039-4.571-11.781-6.708-17.251l2.798-1.189l11.432,13.289L232.606,398.797z
			 M256.145,459.735c-0.215-0.446-0.471-0.867-0.767-1.259c-3.388-8.955-7.688-20.286-12.447-32.753l7-38.325h12.138l7,38.325
			C264.082,438.784,259.603,450.594,256.145,459.735z M264.881,372.404h-17.762l-8.405-9.77L256,355.291l17.286,7.343
			L264.881,372.404z M283.862,387.228c-1.495,3.861-2.987,7.726-4.468,11.569l-3.054-16.721l11.432-13.289l2.798,1.189
			C288.433,375.446,286.2,381.189,283.862,387.228z M312.58,315.18c-0.371,0.876-0.757,1.795-1.15,2.733
			c-0.051,0.122-0.103,0.245-0.154,0.368c-0.389,0.93-0.785,1.88-1.195,2.869c-0.027,0.065-0.055,0.134-0.082,0.2
			c-0.354,0.853-0.717,1.733-1.086,2.63c-0.069,0.168-0.134,0.323-0.203,0.492c-0.082,0.201-0.17,0.414-0.253,0.617
			c-0.164,0.4-0.331,0.808-0.499,1.216c-0.206,0.503-0.411,1.004-0.622,1.519c-0.067,0.164-0.136,0.335-0.204,0.5
			c-0.522,1.279-1.058,2.597-1.606,3.951c-0.086,0.212-0.171,0.42-0.257,0.635c-0.271,0.669-0.547,1.352-0.824,2.039
			c-0.108,0.269-0.217,0.537-0.326,0.809c-0.286,0.709-0.575,1.427-0.867,2.155c-0.082,0.203-0.165,0.411-0.247,0.615
			c-1.017,2.532-2.072,5.173-3.167,7.925c-0.036,0.091-0.072,0.18-0.108,0.272c-0.354,0.889-0.712,1.793-1.074,2.704
			c-0.067,0.17-0.135,0.34-0.203,0.511c-0.374,0.942-0.751,1.894-1.133,2.861c-0.007,0.018-0.014,0.036-0.021,0.053
			c-0.412,1.042-0.826,2.09-1.248,3.16l-7.377-3.134c-0.026-0.011-0.052-0.022-0.077-0.033l-17.662-7.503l42.245-31.574
			C312.982,314.23,312.782,314.7,312.58,315.18z M330.814,292.21c-0.001,0-0.003-0.001-0.004-0.001
			c-0.006-0.002-0.013-0.003-0.019-0.006c-4.35-1.305-8.99-1.089-13.157,0.498c-3.019-3.294-5.118-8.157-5.118-12.861v-21.835
			c22.469,3.312,39.908,20.297,44.232,42.029L330.814,292.21z M389.001,398.375c0,13.124-10.677,23.8-23.8,23.8
			s-23.8-10.676-23.8-23.8c0-13.124,10.677-23.8,23.8-23.8S389.001,385.251,389.001,398.375z"/>
            </g>
        </symbol>

        <symbol id="package" viewBox="0 0 512 512">
            <path d="M450.143,190.001l58.929-58.929c2.479-2.479,3.478-6.075,2.635-9.477c-0.843-3.403-3.407-6.115-6.757-7.149L361.45,70.156
			c-12.936-41.581-51.384-70.154-95.451-70.154c-40.964,0-77.6,24.965-92.763,62.625L7.022,114.455
			c-3.341,1.042-5.895,3.756-6.732,7.155c-0.837,3.398,0.163,6.988,2.638,9.463l60.479,60.479l-38.144,63.575
			c-1.561,2.601-1.856,5.77-0.804,8.615c1.052,2.845,3.339,5.058,6.217,6.017l55.323,18.44v153.802c0,4.168,2.586,7.899,6.489,9.363
			c33.827,12.684,159.512,59.822,160.187,60.061c1.984,0.699,4.219,0.794,6.398,0.089c0.029-0.01,0.059-0.016,0.088-0.026l180-60
			c4.083-1.361,6.838-5.183,6.838-9.487v-157.92l58.998-18.54c3.336-1.048,5.882-3.762,6.715-7.158
			c0.832-3.396-0.169-6.98-2.641-9.453L450.143,190.001z M365.999,100.002c0-2.541-0.107-5.076-0.298-7.603l117.494,36.265
			l-49.897,49.896l-81.528-27.173C361.002,135.956,365.999,118.15,365.999,100.002z M190.326,73.974
			c11.101-32.282,41.512-53.972,75.673-53.972c36.801,0,68.719,24.892,77.618,60.532c1.581,6.333,2.382,12.883,2.382,19.468
			c0,18.574-6.164,35.983-17.828,50.352c-15.277,18.842-37.938,29.648-62.172,29.648c-26.196,0-50.767-12.858-65.733-34.404
			c-9.333-13.406-14.267-29.174-14.267-45.596C185.999,91.071,187.454,82.314,190.326,73.974z M28.764,128.625l138.3-43.124
			c-0.694,4.778-1.065,9.618-1.065,14.5c0,16.101,3.814,31.696,11.084,45.767L78.7,178.56L28.764,128.625z M48.827,254.727
			l31.62-52.702l160.563,53.521l-31.619,52.702C192.246,302.533,67.133,260.828,48.827,254.727z M245.999,487.572l-140-52.5V294.866
			c110.15,36.522,104.771,35.407,107.838,35.407c3.438,0,6.73-1.779,8.577-4.856l23.585-39.311V487.572z M255.999,239.461
			l-148.376-49.458l80.794-26.93c18.91,23.247,47.377,36.929,77.582,36.929c27.942,0,54.203-11.499,73.092-31.759l65.284,21.759
			L255.999,239.461z M425.999,434.794l-160,53.333v-209.62l35.451,44.31c2.579,3.223,6.872,4.529,10.807,3.293l113.742-35.743
			V434.794z M312.791,304.979l-40.024-50.026l160.531-53.51l49.964,49.964L312.791,304.979z"/>
        </symbol>

        <symbol id="content" viewBox="0 0 512 512">
            <path
                d="m100 113c0-11.046875 8.953125-20 20-20h272c11.046875 0 20 8.953125 20 20s-8.953125 20-20 20h-272c-11.046875 0-20-8.953125-20-20zm312 80c0-11.046875-8.953125-20-20-20h-272c-11.046875 0-20 8.953125-20 20s8.953125 20 20 20h272c11.046875 0 20-8.953125 20-20zm-292 60c-11.046875 0-20 8.953125-20 20s8.953125 20 20 20h92c11.046875 0 20-8.953125 20-20s-8.953125-20-20-20zm374.441406 156.589844c23.378906 23.378906 23.378906 61.441406-.015625 84.835937-11.695312 11.695313-27.0625 17.546875-42.425781 17.546875s-30.730469-5.851562-42.425781-17.546875l-109.367188-109.570312c-2.4375-2.441407-4.199219-5.46875-5.117187-8.792969l-22.363282-80.722656c-1.945312-7.03125.085938-14.5625 5.308594-19.65625 5.21875-5.089844 12.796875-6.941406 19.777344-4.820313l78.726562 23.914063c3.152344.957031 6.019532 2.675781 8.34375 5.007812zm-162.210937-49.273438 73.515625 73.652344 28.289062-28.289062-73.925781-74.089844-39.128906-11.886719zm133.910156 77.542969-3.851563-3.863281-28.285156 28.285156 3.867188 3.875c7.785156 7.785156 20.472656 7.785156 28.269531-.015625 7.800781-7.796875 7.800781-20.484375 0-28.28125zm-34.140625-437.859375h-352c-44.113281 0-80 35.886719-80 80v352c0 44.113281 35.886719 80 80 80h245c11.046875 0 20-8.953125 20-20s-8.953125-20-20-20h-245c-22.054688 0-40-17.945312-40-40v-352c0-22.054688 17.945312-40 40-40h352c22.054688 0 40 17.945312 40 40v246c0 11.046875 8.953125 20 20 20s20-8.953125 20-20v-246c0-44.113281-35.886719-80-80-80zm0 0"/>
        </symbol>
        <symbol id="facebook" viewBox="0 0 112.196 112.196">
            <g>
                <circle style="fill:#FFF;" cx="56.098" cy="56.098" r="56.098"/>
                <path style="fill:#9B9BCA;" d="M70.201,58.294h-10.01v36.672H45.025V58.294h-7.213V45.406h7.213v-8.34
		c0-5.964,2.833-15.303,15.301-15.303L71.56,21.81v12.51h-8.151c-1.337,0-3.217,0.668-3.217,3.513v7.585h11.334L70.201,58.294z"/>
            </g>
        </symbol>

        <symbol id="twitter" viewBox="0 0 112.197 112.197">
            <circle style="fill:#FFF;" cx="56.099" cy="56.098" r="56.098"/>
            <g>
                <path style="fill:#9B9BCA;" d="M90.461,40.316c-2.404,1.066-4.99,1.787-7.702,2.109c2.769-1.659,4.894-4.284,5.897-7.417
			c-2.591,1.537-5.462,2.652-8.515,3.253c-2.446-2.605-5.931-4.233-9.79-4.233c-7.404,0-13.409,6.005-13.409,13.409
			c0,1.051,0.119,2.074,0.349,3.056c-11.144-0.559-21.025-5.897-27.639-14.012c-1.154,1.98-1.816,4.285-1.816,6.742
			c0,4.651,2.369,8.757,5.965,11.161c-2.197-0.069-4.266-0.672-6.073-1.679c-0.001,0.057-0.001,0.114-0.001,0.17
			c0,6.497,4.624,11.916,10.757,13.147c-1.124,0.308-2.311,0.471-3.532,0.471c-0.866,0-1.705-0.083-2.523-0.239
			c1.706,5.326,6.657,9.203,12.526,9.312c-4.59,3.597-10.371,5.74-16.655,5.74c-1.08,0-2.15-0.063-3.197-0.188
			c5.931,3.806,12.981,6.025,20.553,6.025c24.664,0,38.152-20.432,38.152-38.153c0-0.581-0.013-1.16-0.039-1.734
			C86.391,45.366,88.664,43.005,90.461,40.316L90.461,40.316z"/>
            </g>
        </symbol>
        <symbol id="instagram" viewBox="0 0 89.758 89.758">
            <g>
                <path style="fill:#FFF;" d="M58.255,23.88H31.503c-4.27,0-7.744,3.474-7.744,7.744v26.752c0,4.27,3.474,7.745,7.744,7.745
		h26.752c4.27,0,7.745-3.474,7.745-7.745V31.624C66,27.354,62.526,23.88,58.255,23.88z M44.879,58.906
		c-7.667,0-13.905-6.238-13.905-13.906c0-7.667,6.238-13.905,13.905-13.905c7.668,0,13.906,6.238,13.906,13.905
		C58.785,52.667,52.546,58.906,44.879,58.906z M59.232,33.97c-1.815,0-3.291-1.476-3.291-3.29c0-1.814,1.476-3.29,3.291-3.29
		c1.814,0,3.29,1.476,3.29,3.29C62.522,32.494,61.046,33.97,59.232,33.97z"/>
                <path style="fill:#FFF;" d="M44.879,36.971c-4.426,0-8.03,3.602-8.03,8.028c0,4.428,3.604,8.031,8.03,8.031
		c4.428,0,8.029-3.603,8.029-8.031C52.908,40.574,49.306,36.971,44.879,36.971z"/>
                <path style="fill:#FFF;" d="M44.879,0C20.094,0,0,20.094,0,44.879c0,24.785,20.094,44.879,44.879,44.879
		c24.785,0,44.879-20.094,44.879-44.879C89.758,20.094,69.664,0,44.879,0z M71.875,58.376c0,7.511-6.109,13.62-13.62,13.62H31.503
		c-7.51,0-13.62-6.109-13.62-13.62V31.624c0-7.51,6.11-13.62,13.62-13.62h26.752c7.511,0,13.62,6.11,13.62,13.62V58.376z"/>
            </g>
        </symbol>


    </defs>
</svg>

