<svg xmlns="http://www.w3.org/2000/svg"><defs><symbol id="design" viewBox="0 0 512 512"><path d="M316 346c-5.52 0-10 4.48-10 10s4.48 10 10 10 10-4.48 10-10-4.48-10-10-10zm0 0"/><path d="M462 0H50C22.43 0 0 22.43 0 50v306c0 27.57 22.43 50 50 50h156v46h-10c-13.352 0-25.902 5.203-35.352 14.648-9.445 9.45-14.648 22-14.648 35.352 0 5.523 4.477 10 10 10h200c5.523 0 10-4.477 10-10 0-27.57-22.43-50-50-50h-10v-46h156c27.57 0 50-22.43 50-50V50c0-27.57-22.43-50-50-50zM50 20h412c16.543 0 30 13.457 30 30v256h-46V76c0-5.523-4.477-10-10-10h-80c-5.523 0-10 4.477-10 10v230h-50.055a918.982 918.982 0 00-.804-30.43c-1.75-40.726-5.739-68.007-7.813-80.007 20.633-15.192 26.266-43.348 13.652-65.223l-34.66-60.031c-1.789-3.094-5.09-5-8.66-5a9.997 9.997 0 00-8.66 5l-34.676 60.035c-11.89 20.625-7.676 47.34 11.004 63.105-2.164 11.965-6.531 40.223-8.43 82.102-.449 9.996-.734 20.199-.843 30.449H166V156a9.947 9.947 0 00-.988-4.316c-.028-.051-.043-.106-.067-.157l-40-80a10.003 10.003 0 00-17.89 0l-40 80c-.024.051-.04.106-.063.157A9.94 9.94 0 0066 156v150H20V50c0-16.543 13.457-30 30-30zm316 286V86h60v20h-10c-5.523 0-10 4.477-10 10s4.477 10 10 10h10v30h-10c-5.523 0-10 4.477-10 10s4.477 10 10 10h10v30h-10c-5.523 0-10 4.477-10 10s4.477 10 10 10h10v40h-10c-5.523 0-10 4.477-10 10s4.477 10 10 10h10v20zM257.66 205.309c3.633 0 7.25-.418 10.79-1.2 1.855 11.895 4.581 32.942 6.195 61.891h-37.223c1.691-28.93 4.547-50.305 6.52-62.602a50.061 50.061 0 0013.718 1.91zm0-20c-22.855 0-37.594-24.875-26.012-44.97l26.012-45.03 25.996 45.027c11.54 20.012-2.996 44.973-25.996 44.973zM236.504 286h39.02c.21 6.57.355 13.254.425 20h-39.894c.074-6.703.226-13.387.449-20zM126 306V166h20v140zm-40 0V166h20v140zm6.18-160L116 98.36 139.82 146zm252.105 346H167.703c1.469-4.168 3.867-7.988 7.086-11.21C180.461 475.12 187.992 472 196 472h120c13.04 0 24.16 8.36 28.285 20zM286 452h-60v-46h60zm176-66H50c-16.543 0-30-13.457-30-30v-30h472v30c0 16.543-13.457 30-30 30zm0 0"/><path d="M276 346h-60c-5.523 0-10 4.477-10 10s4.477 10 10 10h60c5.523 0 10-4.477 10-10s-4.477-10-10-10zm0 0"/></symbol><symbol id="health" viewBox="0 0 512 512"><path d="M482.726 485.783l-22.65-132.603c-2.441-14.287-12.576-25.764-26.453-29.95l-61.092-18.433a67.95 67.95 0 00-17.578-40.175 68.085 68.085 0 00-29.704-18.999 124.42 124.42 0 005.372-6.377c14.528-18.477 22.306-38.833 24.286-52.724h4.713c12.258 0 22.231-9.972 22.231-22.231v-11.396c0-8.181-4.602-15.594-11.523-19.441V106.05a7.498 7.498 0 00-14.995 0v30.764c-2.92.507-6.404 1.383-9.968 2.884a7.53 7.53 0 00-1.056.472c-.805.367-1.611.754-2.414 1.19V80.938c0-16.693-13.58-30.273-30.273-30.273h-20.695a31.105 31.105 0 00-19.637 7.005l-2.031 1.66a20.999 20.999 0 01-13.257 4.73c-4.819 0-9.528-1.68-13.258-4.73l-2.03-1.66a31.11 31.11 0 00-19.637-7.005H200.38c-16.693 0-30.273 13.58-30.273 30.273v60.422a38.473 38.473 0 00-2.414-1.19 7.519 7.519 0 00-1.055-.472c-3.564-1.501-7.049-2.377-9.968-2.884V59.025c0-24.278 19.752-44.03 44.03-44.03h110.601c24.279 0 44.03 19.752 44.03 44.03v11.786a7.498 7.498 0 1014.995 0V59.025C370.326 26.479 343.847 0 311.301 0H200.7c-32.547 0-59.025 26.479-59.025 59.025v74.43c-6.921 3.847-11.523 11.259-11.523 19.441v11.396c0 12.259 9.973 22.231 22.231 22.231h4.713c1.979 13.891 9.758 34.247 24.286 52.724a124.188 124.188 0 005.367 6.371c-25.98 8.252-44.926 31.61-47.277 59.179L78.378 323.23c-13.877 4.186-24.013 15.663-26.453 29.95l-9.198 53.849a7.497 7.497 0 0014.781 2.524l9.198-53.849c1.476-8.644 7.608-15.586 16.003-18.118l56.505-17.049v14.831c-12.952 2.384-23.973 11.281-28.512 23.608a38.026 38.026 0 00-2.226 10.182l-5.461 70.095a19.11 19.11 0 005.01 14.423 19.114 19.114 0 0013.989 6.116h9.348a7.497 7.497 0 100-14.995h-9.348a4.07 4.07 0 01-2.982-1.304 4.07 4.07 0 01-1.067-3.073l5.461-70.096a23.021 23.021 0 011.348-6.167c3.158-8.575 11.686-14.382 21.223-14.449l1.235-.009.172-.001c9.269 0 17.474 5.256 20.935 13.427a22.997 22.997 0 011.755 7.199l5.463 70.097a4.078 4.078 0 01-1.068 3.073 4.074 4.074 0 01-2.982 1.303h-9.348a7.497 7.497 0 100 14.995h9.348a19.108 19.108 0 0013.989-6.116 19.11 19.11 0 005.011-14.422l-5.463-70.096a37.974 37.974 0 00-2.898-11.884c-4.939-11.657-15.5-19.762-27.938-21.955v-19.306l25.774-7.777c2.345 4.939 6.992 15.612 16.197 38.619 9.277 23.214 20.808 52.969 31.867 81.895.079.243.17.48.272.712a9889.647 9889.647 0 0120.662 54.541 7.498 7.498 0 0014.04 0 9730.632 9730.632 0 0120.662-54.541c.103-.232.193-.47.272-.712 11.051-28.909 22.576-58.645 31.849-81.852 9.217-23.037 13.868-33.719 16.214-38.662l25.774 7.777v44.285c-17.858 3.469-31.385 19.219-31.385 38.077 0 21.391 17.403 38.795 38.795 38.795 21.392 0 38.795-17.403 38.795-38.795 0-18.796-13.438-34.508-31.21-38.045v-39.792l56.506 17.049c8.395 2.532 14.526 9.474 16.003 18.118l22.65 132.603a7.329 7.329 0 01-1.648 6.054 7.334 7.334 0 01-5.69 2.644H51.393a7.333 7.333 0 01-5.69-2.644 7.331 7.331 0 01-1.648-6.054l7.475-43.762a7.497 7.497 0 00-6.128-8.652c-4.08-.7-7.955 2.047-8.653 6.128l-7.475 43.762a22.4 22.4 0 004.968 18.248A22.398 22.398 0 0051.393 512h409.214a22.394 22.394 0 0017.151-7.969 22.4 22.4 0 004.968-18.248zM355.421 152.089c3.995-.996 7.202-.978 7.238-.977a7.664 7.664 0 003.664-.87c.334.831.531 1.724.531 2.654v11.396c0 3.99-3.246 7.236-7.236 7.236h-4.197v-19.439zm-198.842 19.439h-4.197c-3.99 0-7.236-3.246-7.236-7.236v-11.396c0-.93.198-1.823.531-2.653a7.646 7.646 0 003.664.869c.057.01 3.255-.008 7.238.981v19.435zm14.995 8.407v-19.698c2.272.681 4.757.588 7.051-.369a10.502 10.502 0 006.477-9.716V80.938c0-8.424 6.854-15.278 15.278-15.278h20.695c3.688 0 7.291 1.285 10.146 3.619l2.03 1.66A36.033 36.033 0 00256 79.054a36.039 36.039 0 0022.749-8.115l2.03-1.66a16.07 16.07 0 0110.146-3.619h20.695c8.424 0 15.278 6.854 15.278 15.278v69.215c0 4.26 2.542 8.074 6.477 9.716a10.471 10.471 0 007.051.375v19.691c0 10.947-7.568 32.205-21.594 50.043-4.646 5.909-10.618 12.257-17.971 17.805a7.51 7.51 0 00-.669.505c-11.391 8.422-26.038 14.874-44.192 14.874s-32.801-6.452-44.193-14.875a7.608 7.608 0 00-.667-.503c-7.353-5.549-13.325-11.897-17.972-17.806-14.025-17.837-21.594-39.096-21.594-50.043zM305.12 301.07L256 337.784l-49.12-36.714c4.871-6.191 7.6-14.138 7.6-21.23v-12.086c11.551 6.212 25.334 10.404 41.52 10.404s29.97-4.192 41.52-10.404v12.086c0 7.092 2.729 15.039 7.6 21.23zm-110.753-8.369a20.5 20.5 0 00-12.642-.636 9.418 9.418 0 00-.539.144l-25.903 7.816c4.381-21.542 21.873-38.688 44.202-42.009v21.824c0 4.704-2.1 9.567-5.118 12.861zm20.349 60.188l-.041-.104a2233.66 2233.66 0 00-1.328-3.353l-1.081-2.722-.075-.189a2891.71 2891.71 0 00-3.212-8.039l-.225-.56-.876-2.177-.316-.783c-.28-.694-.558-1.384-.832-2.059l-.243-.599a3020.388 3020.388 0 00-2.392-5.874l-.584-1.424-.219-.534-.168-.408c-.866-2.104-1.689-4.087-2.47-5.952l-.019-.045c-.416-.993-.823-1.963-1.214-2.887l-.599-1.412 42.245 31.574-17.652 7.499-.094.04-7.37 3.131-1.235-3.123zm17.89 45.908a7797.43 7797.43 0 00-4.468-11.569 6045.963 6045.963 0 00-6.708-17.251l2.798-1.189 11.432 13.289-3.054 16.72zm23.539 60.938a7.466 7.466 0 00-.767-1.259c-3.388-8.955-7.688-20.286-12.447-32.753l7-38.325h12.138l7 38.325a11871.808 11871.808 0 00-12.924 34.012zm8.736-87.331h-17.762l-8.405-9.77L256 355.291l17.286 7.343-8.405 9.77zm18.981 14.824a7797.43 7797.43 0 00-4.468 11.569l-3.054-16.721 11.432-13.289 2.798 1.189c-2.137 5.47-4.37 11.213-6.708 17.252zm28.718-72.048a777.44 777.44 0 00-1.15 2.733l-.154.368c-.389.93-.785 1.88-1.195 2.869l-.082.2c-.354.853-.717 1.733-1.086 2.63l-.203.492-.253.617-.499 1.216-.622 1.519-.204.5a1458.71 1458.71 0 00-1.606 3.951l-.257.635-.824 2.039-.326.809-.867 2.155-.247.615a2635.385 2635.385 0 00-3.167 7.925l-.108.272-1.074 2.704-.203.511-1.133 2.861-.021.053-1.248 3.16-7.377-3.134-.077-.033-17.662-7.503 42.245-31.574c-.198.46-.398.93-.6 1.41zm18.234-22.97l-.004-.001c-.006-.002-.013-.003-.019-.006-4.35-1.305-8.99-1.089-13.157.498-3.019-3.294-5.118-8.157-5.118-12.861v-21.835a52.849 52.849 0 0144.232 42.029l-25.934-7.824zm58.187 106.165c0 13.124-10.677 23.8-23.8 23.8s-23.8-10.676-23.8-23.8 10.677-23.8 23.8-23.8 23.8 10.676 23.8 23.8z"/></symbol><symbol id="package" viewBox="0 0 512 512"><path d="M450.143 190.001l58.929-58.929a10 10 0 00-4.122-16.626l-143.5-44.29C348.514 28.575 310.066.002 265.999.002c-40.964 0-77.6 24.965-92.763 62.625L7.022 114.455a10 10 0 00-4.094 16.618l60.479 60.479-38.144 63.575a10.001 10.001 0 005.413 14.632l55.323 18.44v153.802a10 10 0 006.489 9.363c33.827 12.684 159.512 59.822 160.187 60.061a9.962 9.962 0 006.398.089c.029-.01.059-.016.088-.026l180-60a10.001 10.001 0 006.838-9.487v-157.92l58.998-18.54a10 10 0 004.074-16.611l-58.928-58.929zm-84.144-89.999c0-2.541-.107-5.076-.298-7.603l117.494 36.265-49.897 49.896-81.528-27.173c9.232-15.431 14.229-33.237 14.229-51.385zM190.326 73.974c11.101-32.282 41.512-53.972 75.673-53.972 36.801 0 68.719 24.892 77.618 60.532a80.446 80.446 0 012.382 19.468c0 18.574-6.164 35.983-17.828 50.352-15.277 18.842-37.938 29.648-62.172 29.648-26.196 0-50.767-12.858-65.733-34.404-9.333-13.406-14.267-29.174-14.267-45.596 0-8.931 1.455-17.688 4.327-26.028zM28.764 128.625l138.3-43.124a100.825 100.825 0 00-1.065 14.5c0 16.101 3.814 31.696 11.084 45.767L78.7 178.56l-49.936-49.935zm20.063 126.102l31.62-52.702 160.563 53.521-31.619 52.702-160.564-53.521zm197.172 232.845l-140-52.5V294.866c110.15 36.522 104.771 35.407 107.838 35.407 3.438 0 6.73-1.779 8.577-4.856l23.585-39.311v201.466zm10-248.111l-148.376-49.458 80.794-26.93c18.91 23.247 47.377 36.929 77.582 36.929 27.942 0 54.203-11.499 73.092-31.759l65.284 21.759-148.376 49.459zm170 195.333l-160 53.333v-209.62l35.451 44.31a10.002 10.002 0 0010.807 3.293l113.742-35.743v144.427zM312.791 304.979l-40.024-50.026 160.531-53.51 49.964 49.964-170.471 53.572z"/></symbol><symbol id="content" viewBox="0 0 512 512"><path d="M100 113c0-11.047 8.953-20 20-20h272c11.047 0 20 8.953 20 20s-8.953 20-20 20H120c-11.047 0-20-8.953-20-20zm312 80c0-11.047-8.953-20-20-20H120c-11.047 0-20 8.953-20 20s8.953 20 20 20h272c11.047 0 20-8.953 20-20zm-292 60c-11.047 0-20 8.953-20 20s8.953 20 20 20h92c11.047 0 20-8.953 20-20s-8.953-20-20-20zm374.441 156.59c23.38 23.379 23.38 61.441-.015 84.836-11.696 11.695-27.063 17.547-42.426 17.547s-30.73-5.852-42.426-17.547l-109.367-109.57a19.962 19.962 0 01-5.117-8.794l-22.363-80.722a20.002 20.002 0 0125.086-24.477l78.726 23.914a19.966 19.966 0 018.344 5.008zm-162.21-49.274l73.515 73.653 28.29-28.29-73.927-74.09-39.129-11.886zm133.91 77.543l-3.852-3.863-28.285 28.285 3.867 3.875c7.785 7.785 20.473 7.785 28.27-.015 7.8-7.797 7.8-20.485 0-28.282zM432 0H80C35.887 0 0 35.887 0 80v352c0 44.113 35.887 80 80 80h245c11.047 0 20-8.953 20-20s-8.953-20-20-20H80c-22.055 0-40-17.945-40-40V80c0-22.055 17.945-40 40-40h352c22.055 0 40 17.945 40 40v246c0 11.047 8.953 20 20 20s20-8.953 20-20V80c0-44.113-35.887-80-80-80zm0 0"/></symbol><symbol id="facebook" viewBox="0 0 112.196 112.196"><circle cx="56.098" cy="56.098" r="56.098" fill="#fff"/><path d="M70.201 58.294h-10.01v36.672H45.025V58.294h-7.213V45.406h7.213v-8.34c0-5.964 2.833-15.303 15.301-15.303l11.234.047v12.51h-8.151c-1.337 0-3.217.668-3.217 3.513v7.585h11.334l-1.325 12.876z" fill="#9b9bca"/></symbol><symbol id="twitter" viewBox="0 0 112.197 112.197"><circle cx="56.099" cy="56.098" r="56.098" fill="#fff"/><path d="M90.461 40.316a26.753 26.753 0 01-7.702 2.109 13.445 13.445 0 005.897-7.417 26.843 26.843 0 01-8.515 3.253 13.396 13.396 0 00-9.79-4.233c-7.404 0-13.409 6.005-13.409 13.409 0 1.051.119 2.074.349 3.056-11.144-.559-21.025-5.897-27.639-14.012a13.351 13.351 0 00-1.816 6.742c0 4.651 2.369 8.757 5.965 11.161a13.314 13.314 0 01-6.073-1.679l-.001.17c0 6.497 4.624 11.916 10.757 13.147a13.362 13.362 0 01-3.532.471c-.866 0-1.705-.083-2.523-.239 1.706 5.326 6.657 9.203 12.526 9.312a26.904 26.904 0 01-16.655 5.74c-1.08 0-2.15-.063-3.197-.188a37.929 37.929 0 0020.553 6.025c24.664 0 38.152-20.432 38.152-38.153 0-.581-.013-1.16-.039-1.734a27.192 27.192 0 006.692-6.94z" fill="#9b9bca"/></symbol><symbol id="instagram" viewBox="0 0 89.758 89.758"><g fill="#fff"><path d="M58.255 23.88H31.503c-4.27 0-7.744 3.474-7.744 7.744v26.752c0 4.27 3.474 7.745 7.744 7.745h26.752c4.27 0 7.745-3.474 7.745-7.745V31.624c0-4.27-3.474-7.744-7.745-7.744zM44.879 58.906c-7.667 0-13.905-6.238-13.905-13.906 0-7.667 6.238-13.905 13.905-13.905 7.668 0 13.906 6.238 13.906 13.905 0 7.667-6.239 13.906-13.906 13.906zM59.232 33.97a3.294 3.294 0 01-3.291-3.29 3.294 3.294 0 013.291-3.29 3.294 3.294 0 013.29 3.29 3.294 3.294 0 01-3.29 3.29z"/><path d="M44.879 36.971c-4.426 0-8.03 3.602-8.03 8.028 0 4.428 3.604 8.031 8.03 8.031 4.428 0 8.029-3.603 8.029-8.031 0-4.425-3.602-8.028-8.029-8.028z"/><path d="M44.879 0C20.094 0 0 20.094 0 44.879c0 24.785 20.094 44.879 44.879 44.879 24.785 0 44.879-20.094 44.879-44.879C89.758 20.094 69.664 0 44.879 0zm26.996 58.376c0 7.511-6.109 13.62-13.62 13.62H31.503c-7.51 0-13.62-6.109-13.62-13.62V31.624c0-7.51 6.11-13.62 13.62-13.62h26.752c7.511 0 13.62 6.11 13.62 13.62v26.752z"/></g></symbol></defs></svg>