<svg xmlns="http://www.w3.org/2000/svg">
    <defs>
        <symbol id="facebook">
            <path
                d="M19.65 28V17.999h2.958L23 14.552h-3.35l.005-1.725c0-.899.091-1.38 1.475-1.38h1.85V8h-2.96c-3.554 0-4.805 1.672-4.805 4.483v2.07H13v3.446h2.215V28h4.435z"
                fill="#FFF"/>
        </symbol>

        <symbol id="instagram">
        <path d="M18.002 13.898A4.095 4.095 0 0013.9 18a4.095 4.095 0 004.1 4.102A4.095 4.095 0 0022.104 18a4.095 4.095 0 00-4.101-4.102zm0 6.769A2.672 2.672 0 0115.335 18a2.67 2.67 0 012.667-2.667A2.67 2.67 0 0120.668 18c0 1.47-1.2 2.667-2.666 2.667zm5.225-6.937a.954.954 0 01-.956.957.957.957 0 11.957-.957zm2.717.971c-.06-1.282-.354-2.417-1.292-3.352-.936-.936-2.07-1.229-3.352-1.293-1.32-.075-5.28-.075-6.6 0-1.278.06-2.413.354-3.352 1.29-.938.934-1.228 2.07-1.292 3.351-.075 1.322-.075 5.28 0 6.602.06 1.282.354 2.417 1.292 3.352.94.936 2.07 1.229 3.352 1.293 1.32.075 5.28.075 6.6 0 1.281-.06 2.416-.354 3.352-1.293.935-.935 1.227-2.07 1.292-3.352.075-1.321.075-5.277 0-6.598zm-1.706 8.015a2.7 2.7 0 01-1.521 1.521c-1.053.418-3.552.322-4.715.322-1.164 0-3.666.092-4.715-.322a2.7 2.7 0 01-1.521-1.52c-.418-1.054-.321-3.553-.321-4.717 0-1.164-.093-3.667.321-4.716a2.7 2.7 0 011.52-1.521c1.053-.418 3.552-.322 4.716-.322 1.163 0 3.666-.092 4.715.322a2.7 2.7 0 011.52 1.52c.418 1.054.322 3.553.322 4.717 0 1.164.096 3.667-.321 4.716z"
              fill="#FFF"/>
        </symbol>

        <symbol id="twitter">
            <path fill="#FFF" fill-rule="evenodd" clip-rule="evenodd" d="M17.78 14.64l-.04-.65c-.117-1.681.91-3.217 2.536-3.813.599-.212 1.613-.238 2.276-.053.26.08.755.344 1.106.583l.637.436.702-.225c.39-.119.91-.317 1.145-.45.221-.119.416-.185.416-.145 0 .225-.481.993-.884 1.416-.547.596-.39.65.715.252.663-.225.676-.225.546.026-.078.133-.481.596-.91 1.02-.728.728-.767.808-.767 1.417 0 .94-.443 2.9-.885 3.972-.82 2.012-2.575 4.091-4.33 5.137-2.472 1.47-5.763 1.84-8.533.98C10.587 24.252 9 23.51 9 23.378c0-.04.481-.093 1.066-.106a7.275 7.275 0 003.486-.98l.703-.424-.807-.278c-1.145-.397-2.172-1.31-2.432-2.171-.078-.278-.052-.291.676-.291l.755-.014-.638-.304c-.754-.384-1.443-1.033-1.781-1.695-.248-.477-.56-1.682-.469-1.774.026-.04.3.04.612.145.897.331 1.014.252.494-.304-.976-1.006-1.275-2.503-.807-3.92l.221-.635.859.86c1.756 1.735 3.824 2.768 6.19 3.073l.651.08z"/>
        </symbol>

        <symbol id="view" x="0px" y="0px" viewBox="0 0 461.312 461.312" style="enable-background:new 0 0 461.312 461.312;">
            <path style="fill:#aa076b" d="M230.656,156.416c-40.96,0-74.24,33.28-74.24,74.24s33.28,74.24,74.24,74.24s74.24-33.28,74.24-74.24
            S271.616,156.416,230.656,156.416z M225.024,208.64c-9.216,0-16.896,7.68-16.896,16.896h-24.576
            c0.512-23.04,18.944-41.472,41.472-41.472V208.64z"/>
            <path style="fill:#aa076b" d="M455.936,215.296c-25.088-31.232-114.688-133.12-225.28-133.12S30.464,184.064,5.376,215.296
            c-7.168,8.704-7.168,21.504,0,30.72c25.088,31.232,114.688,133.12,225.28,133.12s200.192-101.888,225.28-133.12
            C463.104,237.312,463.104,224.512,455.936,215.296z M230.656,338.176c-59.392,0-107.52-48.128-107.52-107.52
            s48.128-107.52,107.52-107.52s107.52,48.128,107.52,107.52S290.048,338.176,230.656,338.176z"/>
        </symbol>

         <symbol id="view-close" viewBox="0 0 36 36" version="1.1">
         <path style=" stroke:none;fill-rule:nonzero;fill:#aa076b;fill-opacity:1;" d="M 17.726562 12.296875 L 22.878906 17.453125 L 22.902344 17.183594 C 22.902344 14.472656 20.703125 12.273438 17.996094 12.273438 Z M 17.726562 12.296875 "/>
         <path style=" stroke:none;fill-rule:nonzero;fill:#aa076b;fill-opacity:1;" d="M 17.996094 9.003906 C 22.511719 9.003906 26.175781 12.667969 26.175781 17.183594 C 26.175781 18.238281 25.964844 19.242188 25.59375 20.167969 L 30.378906 24.953125 C 32.851562 22.890625 34.796875 20.226562 36 17.183594 C 33.160156 10 26.183594 4.914062 17.996094 4.914062 C 15.707031 4.914062 13.511719 5.320312 11.476562 6.058594 L 15.011719 9.582031 C 15.933594 9.222656 16.941406 9.003906 17.996094 9.003906 Z M 17.996094 9.003906 "/>
         <path style=" stroke:none;fill-rule:nonzero;fill:#aa076b;fill-opacity:1;" d="M 1.636719 4.542969 L 5.367188 8.273438 L 6.109375 9.019531 C 3.410156 11.128906 1.277344 13.933594 0 17.183594 C 2.832031 24.363281 9.816406 29.453125 17.996094 29.453125 C 20.53125 29.453125 22.953125 28.960938 25.167969 28.070312 L 25.863281 28.765625 L 30.632812 33.542969 L 32.71875 31.464844 L 3.722656 2.457031 Z M 10.683594 13.582031 L 13.210938 16.109375 C 13.136719 16.460938 13.089844 16.8125 13.089844 17.183594 C 13.089844 19.890625 15.289062 22.089844 17.996094 22.089844 C 18.363281 22.089844 18.714844 22.039062 19.058594 21.96875 L 21.585938 24.496094 C 20.5 25.035156 19.289062 25.363281 17.996094 25.363281 C 13.480469 25.363281 9.816406 21.699219 9.816406 17.183594 C 9.816406 15.890625 10.144531 14.679688 10.683594 13.582031 Z M 10.683594 13.582031 "/>
        </symbol>
    </defs>
</svg>
