<svg xmlns="http://www.w3.org/2000/svg" width="40pt" height="40pt" viewBox="0 0 40 40">
    <defs>
        <symbol id="two">
        <path style=" stroke:none;fill-rule:nonzero;fill-opacity:1;" d="M 34.132812 40 L 5.867188 40 L 6.011719 38.699219 C 6.394531 35.25 7.78125 32.023438 10.246094 28.832031 C 12.359375 26.101562 14.894531 23.828125 17.351562 21.632812 C 21.136719 18.242188 24.40625 15.3125 24.40625 12.074219 C 24.40625 9.558594 23.128906 8.28125 20.605469 8.28125 C 18.75 8.28125 16.816406 8.84375 16.539062 13.019531 L 16.460938 14.226562 L 6.746094 13.28125 L 6.875 12.097656 C 7.746094 4.222656 12.628906 0 20.789062 0 C 29.332031 0 34.132812 5.261719 34.132812 11.566406 C 34.132812 14.796875 33.066406 17.808594 30.878906 20.765625 C 29.023438 23.273438 26.597656 25.417969 24.457031 27.308594 C 23.074219 28.53125 21.746094 29.707031 20.710938 30.851562 L 34.132812 30.851562 Z M 8.546875 37.65625 L 31.789062 37.65625 L 31.789062 33.195312 L 16.296875 33.195312 L 17.347656 31.425781 C 18.546875 29.40625 20.664062 27.535156 22.902344 25.554688 C 27.066406 21.875 31.789062 17.703125 31.789062 11.566406 C 31.789062 6.976562 28.386719 2.34375 20.789062 2.34375 C 14.261719 2.34375 10.425781 5.316406 9.375 11.179688 L 14.332031 11.664062 C 14.878906 8.078125 16.90625 5.9375 20.605469 5.9375 C 24.394531 5.9375 26.75 8.289062 26.75 12.074219 C 26.75 16.359375 22.941406 19.769531 18.914062 23.378906 C 14.609375 27.230469 9.773438 31.5625 8.546875 37.65625 Z M 8.546875 37.65625 "/>
        </symbol>

        <symbol id="four">
        <path style=" stroke:none;fill-rule:nonzero;fill-opacity:1;" d="M 29.609375 40 L 20.613281 40 L 20.613281 32.328125 L 5.9375 32.328125 L 5.9375 24.539062 L 22.035156 0 L 29.609375 0 L 29.609375 23.691406 L 34.0625 23.691406 L 34.0625 32.328125 L 29.609375 32.328125 Z M 22.957031 37.65625 L 27.265625 37.65625 L 27.265625 29.984375 L 31.71875 29.984375 L 31.71875 26.035156 L 27.265625 26.035156 L 27.265625 2.34375 L 23.300781 2.34375 L 8.28125 25.238281 L 8.28125 29.984375 L 22.957031 29.984375 Z M 22.957031 26.035156 L 11.390625 26.035156 L 22.957031 8.125 Z M 15.695312 23.691406 L 20.613281 23.691406 L 20.613281 16.074219 Z M 15.695312 23.691406 "/>
        </symbol>

        <symbol id="six">
          <path style=" stroke:none;fill-rule:nonzero;fill-opacity:1;" d="M 20.488281 40 C 9.8125 40 5.9375 30.980469 5.9375 20.261719 C 5.9375 7.195312 11.367188 0 21.222656 0 C 24.378906 0 27.140625 0.90625 29.21875 2.617188 C 31.375 4.394531 32.757812 6.945312 33.332031 10.1875 L 33.554688 11.425781 L 23.996094 12.429688 L 23.855469 11.289062 C 23.585938 9.160156 22.636719 8.207031 20.777344 8.207031 C 17.914062 8.207031 16.746094 10.679688 16.214844 14.617188 C 17.808594 13.613281 19.628906 13.105469 21.644531 13.105469 C 24.90625 13.105469 27.96875 14.359375 30.265625 16.632812 C 32.75 19.09375 34.0625 22.433594 34.0625 26.300781 C 34.0625 30.359375 32.710938 33.820312 30.160156 36.3125 C 27.71875 38.691406 24.285156 40 20.488281 40 Z M 21.222656 2.34375 C 11.433594 2.34375 8.28125 10.476562 8.28125 20.261719 C 8.28125 29.535156 11.207031 37.65625 20.488281 37.65625 C 27.207031 37.65625 31.71875 33.09375 31.71875 26.300781 C 31.71875 19.25 26.527344 15.449219 21.644531 15.449219 C 19.234375 15.449219 17.273438 16.335938 15.648438 18.160156 L 13.378906 20.710938 L 13.601562 17.304688 C 13.765625 14.882812 14.054688 12.113281 14.988281 9.9375 C 16.148438 7.234375 18.09375 5.863281 20.777344 5.863281 C 22.277344 5.863281 23.511719 6.308594 24.445312 7.183594 C 25.160156 7.851562 25.667969 8.75 25.964844 9.867188 L 30.75 9.363281 C 29.511719 4.824219 26.171875 2.34375 21.222656 2.34375 Z M 20.855469 34.085938 C 17.566406 34.085938 14.234375 31.222656 14.234375 25.75 C 14.234375 20.859375 17.078125 18.289062 20.488281 18.289062 C 23.890625 18.289062 26.820312 20.707031 26.820312 26.375 C 26.820312 30.660156 25.035156 34.085938 20.855469 34.085938 Z M 20.488281 20.632812 C 18.039062 20.632812 16.578125 22.546875 16.578125 25.75 C 16.578125 29.683594 18.6875 31.742188 20.855469 31.742188 C 23.664062 31.742188 24.476562 29.210938 24.476562 26.375 C 24.476562 22.671875 23.058594 20.632812 20.488281 20.632812 Z M 20.488281 20.632812 "/>
        </symbol>
    </defs>
</svg>
