<svg xmlns="http://www.w3.org/2000/svg">
<difs><symbol  viewBox="0 0 512 512" id="content-writing"><path d="m467 1h-422c-24.813 0-45 20.187-45 45v360c0 24.813 20.187 45 45 45h256v45c0 8.284 6.716 15 15 15s15-6.716 15-15v-150h31v150c0 8.284 6.716 15 15 15s15-6.716 15-15v-150h29v150c0 8.284 6.716 15 15 15s15-6.716 15-15v-45h16c24.813 0 45-20.187 45-45v-360c0-24.813-20.187-45-45-45zm-422 30h422c8.271 0 15 6.729 15 15v75h-452v-75c0-8.271 6.729-15 15-15zm299.028 285 31.972-47.958 31.972 47.958zm122.972 105h-16v-90c0-2.961-.876-5.856-2.519-8.32l-60-90c-5.919-8.879-19.02-8.913-24.962 0l-60 90c-1.643 2.464-2.519 5.359-2.519 8.32v90h-256c-8.271 0-15-6.729-15-15v-255h452v255c0 8.271-6.729 15-15 15z"/><path d="m196 301h-120c-8.284 0-15 6.716-15 15v60c0 8.284 6.716 15 15 15h120c8.284 0 15-6.716 15-15v-60c0-8.284-6.716-15-15-15zm-15 60h-90v-30h90z"/><path d="m346 181h-270c-8.284 0-15 6.716-15 15s6.716 15 15 15h270c8.284 0 15-6.716 15-15s-6.716-15-15-15z"/><path d="m286 241h-210c-8.284 0-15 6.716-15 15s6.716 15 15 15h210c8.284 0 15-6.716 15-15s-6.716-15-15-15z"/><circle cx="76" cy="76" r="15"/><circle cx="136" cy="76" r="15"/><circle cx="196" cy="76" r="15"/><path d="m346 91h90c8.284 0 15-6.716 15-15s-6.716-15-15-15h-90c-8.284 0-15 6.716-15 15s6.716 15 15 15z"/></symbol></difs></svg>
