<svg width="65" height="65" viewBox="0 0 65 65" fill="none" xmlns="http://www.w3.org/2000/svg">
<path d="M59.2871 0.126953H5.71289C2.5628 0.126953 0 2.68976 0 5.83984V51.543C0 54.6931 2.5628 57.2559 5.71289 57.2559H38.2129V62.9688C38.2129 64.0204 39.0655 64.873 40.1172 64.873C41.1689 64.873 42.0215 64.0204 42.0215 62.9688V43.9258H45.957V62.9688C45.957 64.0204 46.8096 64.873 47.8613 64.873C48.913 64.873 49.7656 64.0204 49.7656 62.9688V43.9258H53.4473V62.9688C53.4473 64.0204 54.2999 64.873 55.3516 64.873C56.4032 64.873 57.2559 64.0204 57.2559 62.9688V57.2559H59.2871C62.4372 57.2559 65 54.6931 65 51.543V5.83984C65 2.68976 62.4372 0.126953 59.2871 0.126953ZM5.71289 3.93555H59.2871C60.3371 3.93555 61.1914 4.78981 61.1914 5.83984V15.3613H3.80859V5.83984C3.80859 4.78981 4.66286 3.93555 5.71289 3.93555ZM43.6754 40.1172L47.7344 34.0288L51.7933 40.1172H43.6754ZM59.2871 53.4473H57.2559V42.0215C57.2559 41.6456 57.1446 41.278 56.9361 40.9652L49.3189 29.5395C48.5674 28.4122 46.9042 28.4079 46.1499 29.5395L38.5327 40.9652C38.3241 41.278 38.2129 41.6456 38.2129 42.0215V53.4473H5.71289C4.66286 53.4473 3.80859 52.593 3.80859 51.543V19.1699H61.1914V51.543C61.1914 52.593 60.3371 53.4473 59.2871 53.4473Z" fill="#9D9D9D"/>
<path d="M24.8828 38.2129H9.64844C8.59676 38.2129 7.74414 39.0655 7.74414 40.1172V47.7344C7.74414 48.7861 8.59676 49.6387 9.64844 49.6387H24.8828C25.9345 49.6387 26.7871 48.7861 26.7871 47.7344V40.1172C26.7871 39.0655 25.9345 38.2129 24.8828 38.2129ZM22.9785 45.8301H11.5527V42.0215H22.9785V45.8301Z" fill="#9D9D9D"/>
<path d="M43.9258 22.9785H9.64844C8.59676 22.9785 7.74414 23.8311 7.74414 24.8828C7.74414 25.9345 8.59676 26.7871 9.64844 26.7871H43.9258C44.9775 26.7871 45.8301 25.9345 45.8301 24.8828C45.8301 23.8311 44.9775 22.9785 43.9258 22.9785Z" fill="#9D9D9D"/>
<path d="M36.3086 30.5957H9.64844C8.59676 30.5957 7.74414 31.4483 7.74414 32.5C7.74414 33.5517 8.59676 34.4043 9.64844 34.4043H36.3086C37.3603 34.4043 38.2129 33.5517 38.2129 32.5C38.2129 31.4483 37.3603 30.5957 36.3086 30.5957Z" fill="#9D9D9D"/>
<path d="M9.64844 11.5527C10.7002 11.5527 11.5527 10.7002 11.5527 9.64844C11.5527 8.59672 10.7002 7.74414 9.64844 7.74414C8.59672 7.74414 7.74414 8.59672 7.74414 9.64844C7.74414 10.7002 8.59672 11.5527 9.64844 11.5527Z" fill="#9D9D9D"/>
<path d="M17.2656 11.5527C18.3173 11.5527 19.1699 10.7002 19.1699 9.64844C19.1699 8.59672 18.3173 7.74414 17.2656 7.74414C16.2139 7.74414 15.3613 8.59672 15.3613 9.64844C15.3613 10.7002 16.2139 11.5527 17.2656 11.5527Z" fill="#9D9D9D"/>
<path d="M24.8828 11.5527C25.9345 11.5527 26.7871 10.7002 26.7871 9.64844C26.7871 8.59672 25.9345 7.74414 24.8828 7.74414C23.8311 7.74414 22.9785 8.59672 22.9785 9.64844C22.9785 10.7002 23.8311 11.5527 24.8828 11.5527Z" fill="#9D9D9D"/>
<path d="M43.9258 11.5527H55.3516C56.4032 11.5527 57.2559 10.7001 57.2559 9.64844C57.2559 8.59676 56.4032 7.74414 55.3516 7.74414H43.9258C42.8741 7.74414 42.0215 8.59676 42.0215 9.64844C42.0215 10.7001 42.8741 11.5527 43.9258 11.5527Z" fill="#9D9D9D"/>
</svg>
