<svg width="59" height="65" viewBox="0 0 59 65" fill="none" xmlns="http://www.w3.org/2000/svg">
<path d="M58.2836 61.6717L55.4081 44.8373C55.0982 43.0235 53.8115 41.5665 52.0498 41.0351L44.294 38.6949C44.1334 36.799 43.356 35.0104 42.0624 33.5946C41.0276 32.4622 39.7261 31.6376 38.2914 31.1826C38.5369 30.9102 38.7645 30.6386 38.9734 30.373C40.8177 28.0273 41.8052 25.4431 42.0565 23.6796H42.6549C44.2111 23.6796 45.4772 22.4136 45.4772 20.8573V19.4105C45.4772 18.3719 44.8929 17.4308 44.0143 16.9424V13.4634C44.0143 12.9377 43.5881 12.5115 43.0624 12.5115C42.5367 12.5115 42.1106 12.9375 42.1106 13.4634V17.369C41.7399 17.4333 41.2976 17.5445 40.8451 17.7351C40.7988 17.752 40.7537 17.7715 40.7111 17.795C40.6089 17.8416 40.5066 17.8907 40.4046 17.9461V10.2753C40.4046 8.1561 38.6806 6.43208 36.5614 6.43208H33.9341C33.0279 6.43208 32.1426 6.74781 31.4411 7.32139L31.1833 7.53213C30.7097 7.91934 30.112 8.13262 29.5002 8.13262C28.8885 8.13262 28.2906 7.91934 27.8171 7.53213L27.5594 7.32139C26.8578 6.74794 25.9726 6.43208 25.0664 6.43208H22.4389C20.3196 6.43208 18.5956 8.1561 18.5956 10.2753V17.9461C18.4937 17.8907 18.3913 17.8416 18.2891 17.795C18.2465 17.7715 18.2015 17.752 18.1552 17.7351C17.7027 17.5445 17.2603 17.4333 16.8897 17.369V7.49341C16.8897 4.41124 19.3973 1.90366 22.4795 1.90366H36.5206C39.6029 1.90366 42.1104 4.41124 42.1104 7.49341V8.98968C42.1104 9.51539 42.5365 9.94157 43.0621 9.94157C43.5877 9.94157 44.014 9.51552 44.014 8.98968V7.49341C44.014 3.36159 40.6524 0 36.5206 0H22.4795C18.3475 0 14.9861 3.36159 14.9861 7.49341V16.9425C14.1074 17.4309 13.5232 18.3719 13.5232 19.4106V20.8574C13.5232 22.4137 14.7893 23.6797 16.3455 23.6797H16.9438C17.1951 25.4432 18.1826 28.0274 20.027 30.3732C20.2356 30.6385 20.4631 30.9098 20.7084 31.182C17.4101 32.2296 15.0049 35.195 14.7064 38.6949L6.95032 41.0351C5.18859 41.5665 3.90179 43.0235 3.59203 44.8373L2.42431 51.6736C2.33582 52.1918 2.68418 52.6835 3.20228 52.772C3.72025 52.8607 4.21219 52.5123 4.30081 51.994L5.46852 45.1577C5.6559 44.0604 6.43438 43.179 7.50015 42.8576L14.6736 40.6932V42.576C13.0293 42.8787 11.6302 44.0082 11.054 45.5731C10.901 45.9885 10.8059 46.4235 10.7714 46.8658L10.0781 55.7645C10.0258 56.4349 10.2577 57.1024 10.7141 57.5956C11.1705 58.0889 11.8178 58.372 12.49 58.372H13.6768C14.2025 58.372 14.6287 57.946 14.6287 57.4201C14.6287 56.8943 14.2025 56.4684 13.6768 56.4684H12.49C12.3467 56.4684 12.2088 56.4082 12.1115 56.3028C12.0142 56.1977 11.9648 56.0555 11.976 55.9127L12.6693 47.0138C12.6902 46.7458 12.7478 46.4824 12.8404 46.2309C13.2414 45.1422 14.324 44.405 15.5348 44.3965L15.6915 44.3954C15.6989 44.3953 15.7061 44.3953 15.7134 44.3953C16.8901 44.3953 17.9318 45.0625 18.3711 46.0999C18.4944 46.3907 18.5693 46.6982 18.5939 47.0138L19.2875 55.9128C19.2985 56.0555 19.2492 56.1977 19.1519 56.3029C19.0547 56.4081 18.9167 56.4684 18.7733 56.4684H17.5866C17.0609 56.4684 16.6347 56.8944 16.6347 57.4201C16.6347 57.9459 17.0609 58.372 17.5866 58.372H18.7733C19.4456 58.372 20.093 58.0891 20.5493 57.5956C21.0058 57.1021 21.2377 56.4347 21.1854 55.7647L20.4919 46.8658C20.4513 46.345 20.3275 45.8373 20.124 45.357C19.497 43.8772 18.1562 42.8482 16.5772 42.5698V40.1188L19.8493 39.1315C20.147 39.7585 20.7369 41.1135 21.9055 44.0343C23.0833 46.9814 24.5472 50.7589 25.9511 54.4312C25.9612 54.462 25.9727 54.4921 25.9857 54.5215C26.9226 56.9731 27.8314 59.3743 28.6088 61.4457C28.7482 61.8172 29.1033 62.0632 29.5 62.0632C29.8967 62.0632 30.2518 61.8172 30.3912 61.4457C31.1684 59.3743 32.0773 56.9731 33.0143 54.5215C33.0274 54.4921 33.0388 54.4619 33.0488 54.4312C34.4518 50.7611 35.9149 46.986 37.0922 44.0398C38.2623 41.1152 38.8527 39.7591 39.1506 39.1315L42.4227 40.1188V45.741C40.1555 46.1814 38.4382 48.1809 38.4382 50.575C38.4382 53.2906 40.6476 55.5001 43.3634 55.5001C46.0792 55.5001 48.2885 53.2907 48.2885 50.575C48.2885 48.1887 46.5825 46.194 44.3263 45.745V40.6933L51.4999 42.8577C52.5657 43.1792 53.3441 44.0605 53.5316 45.1579L56.4071 61.9922C56.4548 62.2714 56.3805 62.5443 56.1978 62.7608C56.0153 62.9771 55.7587 63.0965 55.4755 63.0965H3.52449C3.24125 63.0965 2.98481 62.9773 2.80212 62.7608C2.61956 62.5443 2.54517 62.2715 2.5929 61.9922L3.54188 56.4365C3.63037 55.9183 3.28201 55.4266 2.76391 55.3381C2.24594 55.2492 1.754 55.598 1.66539 56.1161L0.716411 61.6718C0.574858 62.5011 0.80477 63.3454 1.34711 63.9884C1.88971 64.6313 2.6833 65 3.52449 65H55.4755C56.3167 65 57.1104 64.6313 57.6529 63.9883C58.1952 63.3453 58.4251 62.5009 58.2836 61.6717ZM42.1218 19.3082C42.629 19.1817 43.0361 19.184 43.0407 19.1841C43.2047 19.1863 43.3642 19.148 43.5058 19.0737C43.5482 19.1792 43.5732 19.2926 43.5732 19.4106V20.8574C43.5732 21.3639 43.1612 21.776 42.6546 21.776H42.1218V19.3082ZM16.8782 21.776H16.3454C15.8388 21.776 15.4267 21.3639 15.4267 20.8574V19.4106C15.4267 19.2926 15.4519 19.1792 15.4941 19.0738C15.6357 19.1481 15.7951 19.1864 15.9593 19.1841C15.9665 19.1854 16.3725 19.1831 16.8782 19.3087V21.776ZM18.7818 22.8433V20.3426C19.0703 20.429 19.3858 20.4172 19.677 20.2957C20.1765 20.0873 20.4993 19.6032 20.4993 19.0623V10.2753C20.4993 9.20588 21.3694 8.33574 22.4389 8.33574H25.0661C25.5343 8.33574 25.9918 8.49888 26.3542 8.79519L26.6119 9.00593C27.4246 9.6704 28.4502 10.0362 29.5 10.0362C30.5498 10.0362 31.5754 9.67027 32.388 9.00593L32.6458 8.79519C33.0081 8.49888 33.4656 8.33574 33.9338 8.33574H36.5611C37.6306 8.33574 38.5007 9.20588 38.5007 10.2753V19.0624C38.5007 19.6032 38.8234 20.0874 39.323 20.2959C39.4898 20.3654 39.6645 20.3992 39.8376 20.3992C39.9668 20.3992 40.0949 20.3803 40.2181 20.3435V22.8433C40.2181 24.2331 39.2573 26.9318 37.4767 29.1964C36.8869 29.9466 36.1287 30.7525 35.1952 31.4568C35.1656 31.4766 35.1373 31.4981 35.1103 31.5209C33.6642 32.5901 31.8047 33.4092 29.5 33.4092C27.1953 33.4092 25.3358 32.5901 23.8895 31.5208C23.8625 31.4981 23.8343 31.4766 23.8049 31.457C22.8714 30.7525 22.1132 29.9466 21.5233 29.1964C19.7427 26.932 18.7818 24.2331 18.7818 22.8433ZM35.7359 38.2218L29.5 42.8827L23.264 38.2218C23.8824 37.4358 24.2289 36.4269 24.2289 35.5266V33.9922C25.6953 34.7808 27.4451 35.313 29.5 35.313C31.5548 35.313 33.3048 34.7808 34.7711 33.9922V35.5266C34.7711 36.4269 35.1175 37.4358 35.7359 38.2218ZM21.6755 37.1593C21.1672 36.9657 20.6036 36.934 20.0705 37.0786C20.0472 37.084 20.0243 37.0902 20.0021 37.0968L16.7136 38.0891C17.2698 35.3543 19.4905 33.1775 22.3252 32.7559V35.5266C22.3252 36.1237 22.0586 36.7411 21.6755 37.1593ZM24.2589 44.8004C24.2571 44.7959 24.2553 44.7915 24.2536 44.7872C24.2054 44.6652 24.1578 44.5448 24.1106 44.4258C24.1021 44.4043 24.0936 44.3828 24.0851 44.3615C24.0388 44.2451 23.993 44.1295 23.9478 44.0159C23.9446 44.0079 23.9415 44 23.9383 43.9919C23.7973 43.6373 23.6613 43.2972 23.5305 42.9713C23.521 42.9477 23.5115 42.9237 23.502 42.9003C23.4644 42.8068 23.4274 42.7148 23.3907 42.6239C23.3773 42.5905 23.364 42.5575 23.3506 42.5245C23.3151 42.4364 23.2798 42.3488 23.245 42.2631C23.2346 42.2374 23.2244 42.2125 23.2142 42.187C23.1511 42.0314 23.0894 41.8797 23.0292 41.7318C23.0129 41.6918 22.9963 41.651 22.9802 41.6116C22.9566 41.5539 22.9336 41.4978 22.9105 41.4413C22.8856 41.3804 22.8607 41.3199 22.8363 41.2605C22.8272 41.2383 22.8177 41.2148 22.8085 41.1927C22.8012 41.175 22.7944 41.1586 22.7872 41.1409C22.6773 40.8738 22.5728 40.6221 22.4736 40.3853C22.4729 40.3834 22.472 40.3815 22.4712 40.3796C22.4184 40.2535 22.3667 40.1304 22.3171 40.0131C22.2913 39.9523 22.2659 39.8925 22.2411 39.8338L27.6042 43.8422L25.3632 44.7943C25.3593 44.7959 25.3552 44.7976 25.3513 44.7993L24.4156 45.1968C24.3626 45.0626 24.3106 44.9311 24.2589 44.8004ZM26.53 50.6285C26.342 50.1406 26.1526 49.65 25.9628 49.1598C25.666 48.3931 25.3825 47.6642 25.1112 46.9697L25.4664 46.8188L26.9178 48.5059L26.53 50.6285ZM29.5184 58.3648C29.4911 58.3082 29.4586 58.2547 29.421 58.205C28.9909 57.0681 28.445 55.6296 27.8408 54.0469L28.7295 49.1814H30.2705L31.1591 54.0469C30.526 55.705 29.9574 57.2043 29.5184 58.3648ZM30.6275 47.2779H28.3725L27.3055 46.0375L29.5 45.1053L31.6945 46.0375L30.6275 47.2779ZM33.0372 49.1598C32.8474 49.65 32.6579 50.1406 32.4699 50.6285L32.0822 48.5057L33.5335 46.8187L33.8888 46.9696C33.6175 47.664 33.334 48.3931 33.0372 49.1598ZM36.683 40.0131C36.6359 40.1243 36.5869 40.241 36.537 40.36C36.5305 40.3755 36.5239 40.3912 36.5174 40.4068C36.4681 40.5248 36.4178 40.6454 36.3657 40.771C36.3623 40.7792 36.3588 40.788 36.3553 40.7964C36.3104 40.9047 36.2643 41.0164 36.2175 41.1303C36.2087 41.1516 36.2004 41.1713 36.1917 41.1927C36.1813 41.2183 36.1701 41.2453 36.1596 41.2711C36.1387 41.3218 36.1175 41.3736 36.0962 41.4254C36.0701 41.4893 36.044 41.5529 36.0173 41.6183C36.0087 41.6391 36 41.6608 35.9913 41.6818C35.9251 41.8441 35.857 42.0115 35.7875 42.1833C35.7765 42.2103 35.7658 42.2367 35.7548 42.264C35.7204 42.3489 35.6854 42.4356 35.6502 42.5228C35.6365 42.557 35.6227 42.591 35.6088 42.6255C35.5725 42.7155 35.5358 42.8067 35.4988 42.8991C35.4884 42.9249 35.4778 42.9513 35.4674 42.9772C35.3383 43.2986 35.2044 43.6339 35.0654 43.9833C35.0608 43.9948 35.0562 44.0061 35.0516 44.0178C35.0067 44.1307 34.9613 44.2454 34.9153 44.3611C34.9068 44.3827 34.8982 44.4043 34.8895 44.426C34.842 44.5456 34.7942 44.6664 34.7457 44.7892C34.7448 44.7915 34.7439 44.7938 34.743 44.7959C34.6907 44.9282 34.6382 45.0613 34.5846 45.1971L33.6481 44.7992C33.6447 44.7978 33.6414 44.7964 33.6383 44.795L31.396 43.8425L36.7592 39.8341C36.734 39.8925 36.7086 39.9521 36.683 40.0131ZM38.9979 37.097C38.9977 37.097 38.9975 37.0968 38.9973 37.0968C38.9966 37.0966 38.9957 37.0965 38.9949 37.0961C38.4427 36.9304 37.8536 36.9578 37.3246 37.1593C36.9413 36.7411 36.6749 36.1237 36.6749 35.5266V32.7545C39.5274 33.175 41.7413 35.3313 42.2903 38.0903L38.9979 37.097ZM46.3849 50.575C46.3849 52.2411 45.0294 53.5964 43.3634 53.5964C41.6974 53.5964 40.3419 52.2411 40.3419 50.575C40.3419 48.9088 41.6974 47.5535 43.3634 47.5535C45.0294 47.5535 46.3849 48.9088 46.3849 50.575Z" fill="#9D9D9D"/>
</svg>
