<svg width="36" height="36" viewBox="0 0 36 36" fill="none" xmlns="http://www.w3.org/2000/svg">
<circle cx="18" cy="18" r="18" fill="white"/>
<path d="M18.0018 13.8978C15.7316 13.8978 13.9005 15.7293 13.9005 18C13.9005 20.2707 15.7316 22.1022 18.0018 22.1022C20.2719 22.1022 22.1031 20.2707 22.1031 18C22.1031 15.7293 20.2719 13.8978 18.0018 13.8978ZM18.0018 20.667C16.5347 20.667 15.3354 19.4709 15.3354 18C15.3354 16.5291 16.5312 15.333 18.0018 15.333C19.4724 15.333 20.6682 16.5291 20.6682 18C20.6682 19.4709 19.4688 20.667 18.0018 20.667ZM23.2274 13.73C23.2274 14.262 22.7991 14.6868 22.2708 14.6868C21.739 14.6868 21.3142 14.2584 21.3142 13.73C21.3142 13.2016 21.7426 12.7732 22.2708 12.7732C22.7991 12.7732 23.2274 13.2016 23.2274 13.73ZM25.9438 14.7011C25.8831 13.4194 25.5904 12.2841 24.6516 11.3487C23.7165 10.4133 22.5814 10.1205 21.2999 10.0562C19.9793 9.98126 16.0207 9.98126 14.7001 10.0562C13.4222 10.1169 12.2871 10.4097 11.3484 11.3451C10.4096 12.2805 10.1205 13.4158 10.0562 14.6975C9.98126 16.0185 9.98126 19.9779 10.0562 21.2989C10.1169 22.5806 10.4096 23.7159 11.3484 24.6513C12.2871 25.5867 13.4186 25.8795 14.7001 25.9438C16.0207 26.0187 19.9793 26.0187 21.2999 25.9438C22.5814 25.8831 23.7165 25.5903 24.6516 24.6513C25.5868 23.7159 25.8795 22.5806 25.9438 21.2989C26.0187 19.9779 26.0187 16.0221 25.9438 14.7011ZM24.2376 22.7163C23.9592 23.416 23.4202 23.9551 22.717 24.2372C21.664 24.6549 19.1654 24.5585 18.0018 24.5585C16.8381 24.5585 14.336 24.6513 13.2866 24.2372C12.5869 23.9587 12.048 23.4196 11.766 22.7163C11.3484 21.6631 11.4447 19.1639 11.4447 18C11.4447 16.8361 11.3519 14.3334 11.766 13.2837C12.0444 12.584 12.5834 12.0449 13.2866 11.7628C14.3395 11.3451 16.8381 11.4415 18.0018 11.4415C19.1654 11.4415 21.6676 11.3487 22.717 11.7628C23.4166 12.0413 23.9556 12.5804 24.2376 13.2837C24.6552 14.3369 24.5588 16.8361 24.5588 18C24.5588 19.1639 24.6552 21.6666 24.2376 22.7163Z" fill="#9B9BCA"/>
</svg>
