<svg width="36" height="36" viewBox="0 0 36 36" fill="none" xmlns="http://www.w3.org/2000/svg">
<circle cx="18" cy="18" r="18" fill="white"/>
<path fill-rule="evenodd" clip-rule="evenodd" d="M17.7791 14.6391L17.74 13.9902C17.623 12.3087 18.6504 10.7727 20.2762 10.1769C20.8745 9.96507 21.8889 9.93859 22.5523 10.124C22.8123 10.2034 23.3066 10.4682 23.6577 10.7066L24.295 11.1435L24.9973 10.9184C25.3876 10.7992 25.9078 10.6006 26.1419 10.4682C26.363 10.3491 26.5581 10.2828 26.5581 10.3226C26.5581 10.5476 26.0769 11.3156 25.6737 11.7393C25.1274 12.3351 25.2835 12.3881 26.389 11.9909C27.0524 11.7658 27.0653 11.7658 26.9353 12.0173C26.8572 12.1498 26.454 12.6132 26.0248 13.0369C25.2965 13.7652 25.2575 13.8446 25.2575 14.4537C25.2575 15.3937 24.8153 17.3534 24.3731 18.4259C23.5537 20.4384 21.7979 22.5172 20.0421 23.5632C17.571 25.033 14.2804 25.4037 11.5102 24.543C10.5868 24.2517 9 23.5102 9 23.3779C9 23.3381 9.48119 23.2852 10.0665 23.2719C11.2891 23.2455 12.5116 22.9012 13.5521 22.2921L14.2545 21.8684L13.448 21.5904C12.3035 21.1931 11.276 20.2795 11.016 19.4189C10.9379 19.1409 10.9639 19.1276 11.6922 19.1276L12.4466 19.1144L11.8093 18.8098C11.0549 18.4259 10.3656 17.777 10.0275 17.115C9.78032 16.6384 9.46825 15.4334 9.55929 15.3408C9.58524 15.3011 9.85841 15.3805 10.1706 15.4864C11.0679 15.8174 11.185 15.738 10.6648 15.1819C9.68929 14.1756 9.39016 12.6794 9.85841 11.2626L10.0795 10.6271L10.9379 11.4877C12.6937 13.2223 14.7617 14.2551 17.1288 14.5596L17.7791 14.6391Z" fill="#9B9BCA"/>
</svg>
