<svg width="65" height="65" viewBox="0 0 65 65" fill="none" xmlns="http://www.w3.org/2000/svg">
<path d="M58.6523 0H6.34766C2.84752 0 0 2.84752 0 6.34766V45.1953C0 48.6954 2.84752 51.543 6.34766 51.543H26.1523V57.3828H24.8828C23.1878 57.3828 21.5944 58.0434 20.3948 59.2425C19.1957 60.4421 18.5352 62.0354 18.5352 63.7305C18.5352 64.4317 19.1035 65 19.8047 65H45.1953C45.8965 65 46.4648 64.4317 46.4648 63.7305C46.4648 60.2303 43.6173 57.3828 40.1172 57.3828H38.8477V51.543H58.6523C62.1525 51.543 65 48.6954 65 45.1953V6.34766C65 2.84752 62.1525 0 58.6523 0ZM6.34766 2.53906H58.6523C60.7525 2.53906 62.4609 4.24747 62.4609 6.34766V38.8477H56.6211V9.64844C56.6211 8.94722 56.0528 8.37891 55.3516 8.37891H45.1953C44.4941 8.37891 43.9258 8.94722 43.9258 9.64844V38.8477H37.5712C37.5578 37.5345 37.5236 36.2402 37.469 34.9845C37.2469 29.8141 36.7405 26.3507 36.4772 24.8273C39.0966 22.8987 39.8117 19.3242 38.2104 16.5471L33.8102 8.9259C33.5831 8.53313 33.164 8.29113 32.7108 8.29113C32.257 8.29113 31.838 8.53313 31.6113 8.9259L27.2091 16.5475C25.6996 19.166 26.2347 22.5575 28.6061 24.559C28.3314 26.078 27.7769 29.6654 27.5359 34.982C27.4789 36.2511 27.4427 37.5464 27.4288 38.8477H21.0742V19.8047C21.0742 19.6033 21.0266 19.4199 20.9488 19.2567C20.9453 19.2503 20.9433 19.2433 20.9403 19.2369L15.8622 9.08062C15.647 8.65067 15.2076 8.37891 14.7266 8.37891C14.2455 8.37891 13.8062 8.65067 13.5909 9.08062L8.5128 19.2369C8.50983 19.2433 8.50784 19.2503 8.50487 19.2567C8.42552 19.4213 8.37891 19.6078 8.37891 19.8047V38.8477H2.53906V6.34766C2.53906 4.24747 4.24747 2.53906 6.34766 2.53906ZM46.4648 38.8477V10.918H54.082V13.457H52.8125C52.1113 13.457 51.543 14.0253 51.543 14.7266C51.543 15.4278 52.1113 15.9961 52.8125 15.9961H54.082V19.8047H52.8125C52.1113 19.8047 51.543 20.373 51.543 21.0742C51.543 21.7754 52.1113 22.3438 52.8125 22.3438H54.082V26.1523H52.8125C52.1113 26.1523 51.543 26.7207 51.543 27.4219C51.543 28.1231 52.1113 28.6914 52.8125 28.6914H54.082V33.7695H52.8125C52.1113 33.7695 51.543 34.3378 51.543 35.0391C51.543 35.7403 52.1113 36.3086 52.8125 36.3086H54.082V38.8477H46.4648ZM32.7108 26.0646C33.172 26.0646 33.6312 26.0115 34.0805 25.9123C34.316 27.4224 34.6622 30.0943 34.867 33.7695H30.1414C30.3562 30.0968 30.7187 27.3832 30.9691 25.8221C31.5315 25.9822 32.1172 26.0646 32.7108 26.0646ZM32.7108 23.5255C29.8092 23.5255 27.9381 20.3675 29.4085 17.8166L32.7108 12.0997L36.011 17.8161C37.476 20.3566 35.6307 23.5255 32.7108 23.5255ZM30.0249 36.3086H34.9786C35.0053 37.1427 35.0237 37.9912 35.0326 38.8477H29.9679C29.9773 37.9967 29.9966 37.1482 30.0249 36.3086ZM15.9961 38.8477V21.0742H18.5352V38.8477H15.9961ZM10.918 38.8477V21.0742H13.457V38.8477H10.918ZM11.7025 18.5352L14.7266 12.487L17.7506 18.5352H11.7025ZM43.7081 62.4609H21.2904C21.4769 61.9318 21.7814 61.4468 22.19 61.0377C22.9101 60.3181 23.8662 59.9219 24.8828 59.9219H40.1172C41.7725 59.9219 43.1844 60.9831 43.7081 62.4609ZM36.3086 57.3828H28.6914V51.543H36.3086V57.3828ZM58.6523 49.0039H6.34766C4.24747 49.0039 2.53906 47.2955 2.53906 45.1953V41.3867H62.4609V45.1953C62.4609 47.2955 60.7525 49.0039 58.6523 49.0039Z" fill="#9D9D9D"/>
</svg>
