<svg xmlns="http://www.w3.org/2000/svg"><defs><symbol id="facebook" viewBox="0 0 36 36"><circle cx="18" cy="18" r="18" fill="var(--circleColor)"/><path d="M19.65 28V17.999h2.958L23 14.552h-3.35l.005-1.725c0-.899.091-1.38 1.475-1.38h1.85V8h-2.96c-3.554 0-4.805 1.672-4.805 4.483v2.07H13v3.446h2.215V28h4.435z" fill="var(--textColor)"/></symbol><symbol id="tweeter" viewBox="0 0 36 36"><circle cx="18" cy="18" r="18" fill="var(--circleColor)"/><path fill-rule="evenodd" clip-rule="evenodd" d="M17.78 14.64l-.04-.65c-.117-1.681.91-3.217 2.536-3.813.599-.212 1.613-.238 2.276-.053.26.08.755.344 1.106.583l.637.436.702-.225c.39-.119.91-.317 1.145-.45.221-.119.416-.185.416-.145 0 .225-.481.993-.884 1.416-.547.596-.39.65.715.252.663-.225.676-.225.546.026-.078.133-.481.596-.91 1.02-.728.728-.767.808-.767 1.417 0 .94-.443 2.9-.885 3.972-.82 2.012-2.575 4.091-4.33 5.137-2.472 1.47-5.763 1.84-8.533.98C10.587 24.252 9 23.51 9 23.378c0-.04.481-.093 1.066-.106a7.275 7.275 0 003.486-.98l.703-.424-.807-.278c-1.145-.397-2.172-1.31-2.432-2.171-.078-.278-.052-.291.676-.291l.755-.014-.638-.304c-.754-.384-1.443-1.033-1.781-1.695-.248-.477-.56-1.682-.469-1.774.026-.04.3.04.612.145.897.331 1.014.252.494-.304-.976-1.006-1.275-2.503-.807-3.92l.221-.635.859.86c1.756 1.735 3.824 2.768 6.19 3.073l.651.08z" fill="var(--textColor)"/></symbol><symbol id="instagram" viewBox="0 0 36 36"><circle cx="18" cy="18" r="18" fill="var(--circleColor)"/><path d="M18.002 13.898A4.095 4.095 0 0013.9 18a4.095 4.095 0 004.1 4.102A4.095 4.095 0 0022.104 18a4.095 4.095 0 00-4.101-4.102zm0 6.769A2.672 2.672 0 0115.335 18a2.67 2.67 0 012.667-2.667A2.67 2.67 0 0120.668 18c0 1.47-1.2 2.667-2.666 2.667zm5.225-6.937a.954.954 0 01-.956.957.957.957 0 11.957-.957zm2.717.971c-.06-1.282-.354-2.417-1.292-3.352-.936-.936-2.07-1.229-3.352-1.293-1.32-.075-5.28-.075-6.6 0-1.278.06-2.413.354-3.352 1.29-.938.934-1.228 2.07-1.292 3.351-.075 1.322-.075 5.28 0 6.602.06 1.282.354 2.417 1.292 3.352.94.936 2.07 1.229 3.352 1.293 1.32.075 5.28.075 6.6 0 1.281-.06 2.416-.354 3.352-1.293.935-.935 1.227-2.07 1.292-3.352.075-1.321.075-5.277 0-6.598zm-1.706 8.015a2.7 2.7 0 01-1.521 1.521c-1.053.418-3.552.322-4.715.322-1.164 0-3.666.092-4.715-.322a2.7 2.7 0 01-1.521-1.52c-.418-1.054-.321-3.553-.321-4.717 0-1.164-.093-3.667.321-4.716a2.7 2.7 0 011.52-1.521c1.053-.418 3.552-.322 4.716-.322 1.163 0 3.666-.092 4.715.322a2.7 2.7 0 011.52 1.52c.418 1.054.322 3.553.322 4.717 0 1.164.096 3.667-.321 4.716z" fill="var(--textColor)"/></symbol></defs></svg>