<svg xmlns="http://www.w3.org/2000/svg"><defs><symbol id="web-design" viewBox="0 0 512 512"><path d="M472 56H40A32.042 32.042 0 008 88v272a32.042 32.042 0 0032 32h164.9l-10.67 32H168a8 8 0 00-8 8v16H88a8 8 0 000 16h352a8 8 0 000-16h-88v-16a8 8 0 00-8-8h-26.23l-10.67-32H472a32.042 32.042 0 0032-32V88a32.042 32.042 0 00-32-32zM336 440v8H176v-8zm-124.9-16l10.67-32h68.46l10.67 32zM488 360a16.021 16.021 0 01-16 16H40a16.021 16.021 0 01-16-16v-16h464zM143.66 256l-3 72h-9.32l-3-72zm-14.22-16l5.34-32h2.44l5.34 32zm6.56-48c-8.67 0-16-10.99-16-24 0-8.21 8.38-20.14 15.98-28.55C142.83 147.05 152 159.2 152 168c0 13.01-7.33 24-16 24zm87.06-16l.94 1.89V184h-32v-6.11l.94-1.89zm-22.12-16l7.06-14.11 7.06 14.11zM224 200v127a8.258 8.258 0 00.07 1h-32.14a8.258 8.258 0 00.07-1V200zm72-32h24v16h-8a8 8 0 000 16h8v16h-24a8 8 0 000 16h24v16h-8a8 8 0 000 16h8v16h-24a8 8 0 000 16h24v32h-56V136h56v16h-24a8 8 0 000 16zm96 96v63a8.258 8.258 0 00.07 1h-32.14a8.258 8.258 0 00.07-1v-63zm-32-16v-6.11l16-32 16 32V248zm128 80h-80.07a8.258 8.258 0 00.07-1v-87a8.081 8.081 0 00-.84-3.58l-24-48a8.009 8.009 0 00-14.32 0l-24 48A8.081 8.081 0 00344 240v87a8.258 8.258 0 00.07 1H336V128a8 8 0 00-8-8h-72a8 8 0 00-8 8v200h-8.07a8.258 8.258 0 00.07-1V176a8.081 8.081 0 00-.84-3.58l-24-48a8.009 8.009 0 00-14.32 0l-24 48A8.081 8.081 0 00176 176v151a8.258 8.258 0 00.07 1h-19.4l3.32-79.67c.01-.18 0-.36 0-.55v-.24a8.013 8.013 0 00-.1-.84v-.02l-7.4-44.41C161.78 195.26 168 182.52 168 168c0-20.56-23.83-43.33-26.55-45.86a8.017 8.017 0 00-10.9 0C127.83 124.67 104 147.44 104 168c0 14.52 6.22 27.26 15.51 34.27l-7.4 44.41v.02a8.013 8.013 0 00-.1.84v.24c0 .19-.01.37 0 .55l3.32 79.67H24V88a16.021 16.021 0 0116-16h432a16.021 16.021 0 0116 16z"/><path d="M96 352H48a8 8 0 000 16h48a8 8 0 000-16zM128 352h-8a8 8 0 000 16h8a8 8 0 000-16zM208 208a8 8 0 00-8 8v88a8 8 0 0016 0v-88a8 8 0 00-8-8zM376 272a8 8 0 00-8 8v24a8 8 0 0016 0v-24a8 8 0 00-8-8zM48 104h64a8 8 0 000-16H48a8 8 0 000 16zM48 128h16a8 8 0 000-16H48a8 8 0 000 16zM432 312h32a8 8 0 000-16h-32a8 8 0 000 16zM456 288h8a8 8 0 000-16h-8a8 8 0 000 16z"/></symbol></defs></svg>