<svg xmlns="http://www.w3.org/2000/svg">
  <defs>
    <symbol id="adress" width="36pt" height="36pt" viewBox="0 0 50 50">
        <path style=" stroke:none;fill-rule:nonzero;fill:rgb(0%,0%,0%);fill-opacity:1;" d="M 14.378906 32.316406 L 14.378906 35.960938 L 13.496094 35.25 C 13.359375 35.140625 10.121094 32.507812 6.832031 28.734375 C 2.300781 23.527344 0 18.855469 0 14.847656 L 0 14.449219 C 0 6.519531 6.449219 0.0703125 14.378906 0.0703125 C 22.308594 0.0703125 28.757812 6.519531 28.757812 14.449219 L 28.757812 14.847656 C 28.757812 15.183594 28.738281 15.523438 28.707031 15.871094 L 25.894531 13.304688 C 25.320312 7.460938 20.375 2.875 14.378906 2.875 C 7.996094 2.875 2.804688 8.066406 2.804688 14.449219 L 2.804688 14.847656 C 2.804688 21.621094 11.535156 29.824219 14.378906 32.316406 Z M 23.007812 30.300781 L 27.214844 30.300781 L 27.214844 26.09375 L 23.007812 26.09375 Z M 14.378906 8.488281 C 17.667969 8.488281 20.339844 11.160156 20.339844 14.449219 C 20.339844 17.738281 17.667969 20.410156 14.378906 20.410156 C 11.089844 20.410156 8.417969 17.738281 8.417969 14.449219 C 8.417969 11.160156 11.089844 8.488281 14.378906 8.488281 Z M 14.378906 11.292969 C 12.636719 11.292969 11.222656 12.707031 11.222656 14.449219 C 11.222656 16.191406 12.636719 17.605469 14.378906 17.605469 C 16.117188 17.605469 17.535156 16.191406 17.535156 14.449219 C 17.535156 12.707031 16.117188 11.292969 14.378906 11.292969 Z M 34.109375 28.394531 L 33.320312 27.675781 L 33.320312 32.179688 C 33.320312 34.277344 31.613281 35.984375 29.515625 35.984375 L 20.632812 35.984375 C 18.535156 35.984375 16.832031 34.277344 16.832031 32.179688 L 16.832031 27.675781 L 16.042969 28.394531 L 14.152344 26.320312 L 25.074219 16.355469 L 36 26.320312 Z M 30.515625 25.117188 L 25.074219 20.152344 L 19.636719 25.117188 L 19.636719 32.179688 C 19.636719 32.730469 20.082031 33.175781 20.632812 33.175781 L 29.515625 33.175781 C 30.066406 33.175781 30.515625 32.730469 30.515625 32.179688 Z M 30.515625 25.117188 "/>
        </symbol>

         <symbol id="email" width="36pt" height="36pt" viewBox="0 0 50 50">
      <path style=" stroke:none;fill-rule:nonzero;fill:rgb(0%,0%,0%);fill-opacity:1;" d="M 23.863281 18.183594 L 36 25.855469 L 36 10.1875 Z M 23.863281 18.183594 "/>
<path style=" stroke:none;fill-rule:nonzero;fill:rgb(0%,0%,0%);fill-opacity:1;" d="M 0 10.1875 L 0 25.855469 L 12.136719 18.183594 Z M 0 10.1875 "/>
<path style=" stroke:none;fill-rule:nonzero;fill:rgb(0%,0%,0%);fill-opacity:1;" d="M 33.75 5.625 L 2.25 5.625 C 1.128906 5.625 0.234375 6.460938 0.0664062 7.539062 L 18 19.355469 L 35.933594 7.539062 C 35.765625 6.460938 34.871094 5.625 33.75 5.625 Z M 33.75 5.625 "/>
<path style=" stroke:none;fill-rule:nonzero;fill:rgb(0%,0%,0%);fill-opacity:1;" d="M 21.800781 19.542969 L 18.617188 21.640625 C 18.429688 21.765625 18.214844 21.824219 18 21.824219 C 17.785156 21.824219 17.570312 21.765625 17.382812 21.640625 L 14.199219 19.542969 L 0.0703125 28.476562 C 0.246094 29.542969 1.132812 30.375 2.25 30.375 L 33.75 30.375 C 34.867188 30.375 35.753906 29.542969 35.929688 28.476562 Z M 21.800781 19.542969 "/>
         </symbol>

         <symbol id="phone" width="36pt" height="36pt" viewBox="0 0 50 50">
        <path style=" stroke:none;fill-rule:nonzero;fill:rgb(0%,0%,0%);fill-opacity:1;" d="M 35.019531 26.421875 L 29.996094 21.394531 C 28.203125 19.601562 25.152344 20.320312 24.433594 22.652344 C 23.894531 24.265625 22.101562 25.164062 20.488281 24.804688 C 16.898438 23.910156 12.054688 19.242188 11.15625 15.476562 C 10.617188 13.859375 11.695312 12.066406 13.308594 11.527344 C 15.640625 10.808594 16.359375 7.761719 14.566406 5.964844 L 9.542969 0.941406 C 8.105469 -0.3125 5.953125 -0.3125 4.699219 0.941406 L 1.289062 4.351562 C -2.121094 7.941406 1.648438 17.449219 10.078125 25.882812 C 18.511719 34.316406 28.023438 38.261719 31.609375 34.675781 L 35.019531 31.265625 C 36.277344 29.828125 36.277344 27.675781 35.019531 26.421875 Z M 35.019531 26.421875 "/>
         </symbol>
    </defs>
</svg>
