<svg xmlns="http://www.w3.org/2000/svg" viewBox="0 0 198.5 198.5">
    <path fill="#fdcc9b" d="M84.55 148.23h29.39v32.92H84.55z"/>
    <path d="M84.55 152.1s12.37 7.88 29.4 6.06v-9.93h-29.4v3.88z" fill="#fcbc85"/>
    <ellipse cx="42.16" cy="97.18" rx="14.34" ry="16.36" fill="#fcbc85"/>
    <ellipse cx="156.33" cy="97.18" rx="14.34" ry="16.36" fill="#fcbc85"/>
    <path d="M156.27 65.92c0-24.1-17.63-41.74-57.02-41.74-39.4 0-57.03 17.64-57.03 41.74s-4.11 87.6 57.03 87.6 57.02-63.5 57.02-87.6z" fill="#fdcc9b"/>
    <ellipse cx="71.47" cy="93.26" rx="6.17" ry="6.76" fill="#3b2519"/>
    <circle cx="68.78" cy="90.28" r="1.85" fill="#fff"/>
    <path d="M61.6 76.5c2.92 1.47 7.6-4.95 18.33.63 1.96 1.02 3.12-8.7-8.38-8.7-9.95 0-11.72 7.2-9.95 8.08z" fill="#51362a"/>
    <ellipse cx="127.79" cy="93.26" rx="6.17" ry="6.76" fill="#3b2519"/>
    <circle cx="125.09" cy="90.28" r="1.85" fill="#fff"/>
    <path d="M136.9 76.5c-2.92 1.47-7.6-4.95-18.34.63-1.95 1.02-3.12-8.7 8.38-8.7 9.96 0 11.72 7.2 9.96 8.08z" fill="#51362a"/>
    <path d="M99.25 117.04c-6.1 0-9.78-4.55-9.78-2.35 0 2.2 1.77 6.4 9.78 6.4 8 0 9.77-4.2 9.77-6.4s-3.67 2.35-9.77 2.35zM99.25 137.31c-2.11 0-3.38-1.57-3.38-.81s.6 2.21 3.38 2.21c2.77 0 3.38-1.45 3.38-2.21s-1.27.81-3.38.81z" fill="#fcbc85"/>
    <path d="M99.25 131.7c-9.67 0-15.5-3.94-15.5-2.94s2.8 4.92 15.5 4.92 15.5-3.92 15.5-4.92c-.01-1-5.83 2.94-15.5 2.94z" fill="#f7945e"/>
    <path d="M99.25 161.46v37.04H27.82c0-15 37.62-37.04 71.43-37.04zM99.25 161.46v37.04h71.43c0-15-37.63-37.04-71.43-37.04z" fill="#f7941e"/>
    <path d="M99.25 161.46c-7.2 0-14.55 1-21.7 2.72.06.06 7.93 10.21 21.7 10.21 12.75 0 21.23-8.7 22.46-10.03a94.03 94.03 0 00-22.46-2.9z" fill="#f36c21"/>
    <path d="M84.55 162.74s4.3 5.33 14.7 5.33c10.4 0 14.7-5.33 14.7-5.33s-15.25-5.55-29.4 0z" fill="#fdcc9b"/>
    <path d="M146.13 19.04S124.97-7.86 80.98 2.3C36.99 12.43 33.7 38.89 35.02 64.62c1.32 25.74 4.85 40.84 9.02 38.97 4.17-1.86 2-18.85 2.44-22.77.45-3.92 4.41-21.66 31.17-19.01 26.75 2.65 49.3-7.05 49.3-7.05s9.07 11.47 15.04 13.66c11.93 4.4 8.02 33.67 12.7 33.67s27.6-67.62-8.56-83.05z" fill="#51362a"/>
</svg>
